/* XPM */
static char * double_zoom_xpm[] = {
"38 34 134 2",
"  	c None",
". 	c #E6E6E6",
"+ 	c #F3F3F3",
"@ 	c #FFFFFF",
"# 	c #000000",
"$ 	c #393939",
"% 	c #6A6A6A",
"& 	c #757575",
"* 	c #6C6C6C",
"= 	c #424242",
"- 	c #323232",
"; 	c #898989",
"> 	c #303030",
", 	c #808080",
"' 	c #4C4C4C",
") 	c #363636",
"! 	c #9B9B9B",
"~ 	c #BBBBBB",
"{ 	c #C2C2C2",
"] 	c #D2D2D2",
"^ 	c #D7D7D7",
"/ 	c #D3D3D3",
"( 	c #B1B1B1",
"_ 	c #505050",
": 	c #A5A5A5",
"< 	c #E0E0E0",
"[ 	c #E1E1E1",
"} 	c #D0D0D0",
"| 	c #454545",
"1 	c #686868",
"2 	c #BCBCBC",
"3 	c #DCDCDC",
"4 	c #DADADA",
"5 	c #2A2A2A",
"6 	c #ADADAD",
"7 	c #EBEBEB",
"8 	c #EFEFEF",
"9 	c #868686",
"0 	c #414141",
"a 	c #121212",
"b 	c #ACACAC",
"c 	c #D1D1D1",
"d 	c #E9E9E9",
"e 	c #1C1C1C",
"f 	c #BFBFBF",
"g 	c #F6F6F6",
"h 	c #FCFCFC",
"i 	c #767676",
"j 	c #969696",
"k 	c #565656",
"l 	c #7B7B7B",
"m 	c #BDBDBD",
"n 	c #F5F5F5",
"o 	c #FEFEFE",
"p 	c #7D7D7D",
"q 	c #AEAEAE",
"r 	c #D6D6D6",
"s 	c #ABABAB",
"t 	c #D4D4D4",
"u 	c #CDCDCD",
"v 	c #B3B3B3",
"w 	c #C6C6C6",
"x 	c #3B3B3B",
"y 	c #DBDBDB",
"z 	c #6D6D6D",
"A 	c #626262",
"B 	c #F4F4F4",
"C 	c #A2A2A2",
"D 	c #FAFAFA",
"E 	c #F2F2F2",
"F 	c #404040",
"G 	c #B5B5B5",
"H 	c #919191",
"I 	c #C3C3C3",
"J 	c #989898",
"K 	c #B4B4B4",
"L 	c #EAEAEA",
"M 	c #E2E2E2",
"N 	c #979797",
"O 	c #3D3D3D",
"P 	c #707070",
"Q 	c #C0C0C0",
"R 	c #959595",
"S 	c #353535",
"T 	c #E5E5E5",
"U 	c #FDFDFD",
"V 	c #262626",
"W 	c #AAAAAA",
"X 	c #696969",
"Y 	c #888888",
"Z 	c #FBFBFB",
"` 	c #F9F9F9",
" .	c #5C5C5C",
"..	c #A7A7A7",
"+.	c #535353",
"@.	c #D8D8D8",
"#.	c #B2B2B2",
"$.	c #060606",
"%.	c #C9C9C9",
"&.	c #9F9F9F",
"*.	c #0D0D0D",
"=.	c #8A8A8A",
"-.	c #CFCFCF",
";.	c #F7F7F7",
">.	c #8B8B8B",
",.	c #7C7C7C",
"'.	c #282828",
").	c #A1A1A1",
"!.	c #3C3C3C",
"~.	c #B6B6B6",
"{.	c #A3A3A3",
"].	c #EEEEEE",
"^.	c #C5C5C5",
"/.	c #838383",
"(.	c #9C9C9C",
"_.	c #787878",
":.	c #222222",
"<.	c #242424",
"[.	c #B0B0B0",
"}.	c #2E2E2E",
"|.	c #333333",
"1.	c #8D8D8D",
"2.	c #BEBEBE",
"3.	c #5F5F5F",
"4.	c #666666",
"5.	c #C1C1C1",
"6.	c #9E9E9E",
"7.	c #BABABA",
"8.	c #E3E3E3",
"9.	c #191919",
"0.	c #D5D5D5",
"a.	c #E4E4E4",
"b.	c #7F7F7F",
"c.	c #737373",
". . . . . . . . . . . . . . . . . . . . . . . . . . . . . . . . . . . . . . ",
"+ . . . . . . . . . . . . . . . . . . . . . . . . . . . . . . . . . . . . @ ",
"+ + . . . . . . . . . . . . . . . . . . . . . . . . . . . . . . . . . . @ @ ",
"+ + + . . . . . . . . . . . . . . . . . . . . . . . . . . . . . . . . @ @ @ ",
"+ + + + # # # # # # # # # # # # # # # # # # # # # # # # # # # # # # @ @ @ @ ",
"+ + + + # # # # # # # # # # # # # # # # # # # # # # # # # # # # # # @ @ @ @ ",
"+ + + + # # # # $ % & * = # # # # - ; ; ; ; > # # # # # , ; ; ; ' # @ @ @ @ ",
"+ + + + # # ) ! ~ { ] ^ / ( _ # # # : < [ [ } | # # # 1 2 3 [ 4 2 % @ @ @ @ ",
"+ + + + # 5 6 { 7 @ @ @ @ @ 8 9 # # 0 7 @ @ @ { # # a b c @ @ @ d e @ @ @ @ ",
"+ + + + # ; f g @ @ @ @ @ @ @ h i # # j h @ @ h k # l m n @ @ o p # @ @ @ @ ",
"+ + + + # q < @ @ @ r s t o @ @ d # # a r @ @ @ u 5 v 4 @ @ @ w # # @ @ @ @ ",
"+ + + + a ~ g @ @ ] # # x y @ @ @ z # # A B @ @ o C f D @ @ E F # # @ @ @ @ ",
"+ + + + 5 G @ @ @ H # # > I @ @ @ J # # # K @ @ @ L M @ @ @ N # # # @ @ @ @ ",
"+ + + + # O n n n P # # 1 Q @ @ @ R # # # S T @ @ @ U @ @ ^ # # # # @ @ @ @ ",
"+ + + + # # # # # # # V W c @ @ @ X # # # # Y Z @ @ @ @ `  .# # # # @ @ @ @ ",
"+ + + + # # # # # # x ..f B @ @ M # # # # # +.@.@ @ @ @ q # # # # # @ @ @ @ ",
"+ + + + # # # # # A #.I E @ @ Z i # # # # $...%.@ @ @ @ &.# # # # # @ @ @ @ ",
"+ + + + # # # *.=.~ -.` @ @ ;.>.# # # # # ,.2 E @ @ @ @ ;.= # # # # @ @ @ @ ",
"+ + + + # # '.).2 [ @ @ @ T A # # # # # !.~.4 @ @ @ @ @ @ } # # # # @ @ @ @ ",
"+ + + + # a {.f ].@ @ @ ^.V # # # # # # ! I Z @ @ < d @ @ o /.# # # @ @ @ @ ",
"+ + + + # p m 8 @ @ U (.# # # # # # # 1 2 7 @ @ o _.&.U @ @ 8 :.# # @ @ @ @ ",
"+ + + + # b y @ @ @ y 2 2 2 2 2 X # <.[.c @ @ @ } # }.< @ @ @ m # # @ @ @ @ ",
"+ + + + |.2 n @ @ @ @ @ @ @ @ @ @ H 1.2.;.@ @ Z 3.# # =.Z @ @ h 4.# @ @ @ @ ",
"+ + + +  .5.@ @ @ @ @ @ @ @ @ @ @ 6.7.8.@ @ @ Q # # # 9.0.@ @ @ a.# @ @ @ @ ",
"+ + + + # b.@ @ @ @ @ @ @ @ @ @ @ H c.U @ @ g = # # # # V ].@ @ @ ).@ @ @ @ ",
"+ + + + # # # # # # # # # # # # # # # # # # # # # # # # # # # # # # @ @ @ @ ",
"+ + + + # # # # # # # # # # # # # # # # # # # # # # # # # # # # # # @ @ @ @ ",
"+ + + + # # # # # # # # # # # # # # # # # # # # # # # # # # # # # # @ @ @ @ ",
"+ + + + # # # # # # # # # # # # # # # # # # # # # # # # # # # # # # @ @ @ @ ",
"+ + + + # # # # # # # # # # # # # # # # # # # # # # # # # # # # # # @ @ @ @ ",
"+ + + + @ @ @ @ @ @ @ @ @ @ @ @ @ @ @ @ @ @ @ @ @ @ @ @ @ @ @ @ @ @ @ @ @ @ ",
"+ + + @ @ @ @ @ @ @ @ @ @ @ @ @ @ @ @ @ @ @ @ @ @ @ @ @ @ @ @ @ @ @ @ @ @ @ ",
"+ + @ @ @ @ @ @ @ @ @ @ @ @ @ @ @ @ @ @ @ @ @ @ @ @ @ @ @ @ @ @ @ @ @ @ @ @ ",
"+ @ @ @ @ @ @ @ @ @ @ @ @ @ @ @ @ @ @ @ @ @ @ @ @ @ @ @ @ @ @ @ @ @ @ @ @ @ "};
