/* XPM */
static char * effect_xpm[] = {
"161 35 193 2",
"  	c None",
". 	c #E6E6E6",
"+ 	c #F3F3F3",
"@ 	c #FFFFFF",
"# 	c #000000",
"$ 	c #383838",
"% 	c #BCBCBC",
"& 	c #919191",
"* 	c #494949",
"= 	c #A3A3A3",
"- 	c #B8B8B8",
"; 	c #B4B4B4",
"> 	c #717171",
", 	c #7D7D7D",
"' 	c #AEAEAE",
") 	c #B9B9B9",
"! 	c #AFAFAF",
"~ 	c #4F4F4F",
"{ 	c #D6D6D6",
"] 	c #696969",
"^ 	c #6D6D6D",
"/ 	c #F6F6F6",
"( 	c #C1C1C1",
"_ 	c #515151",
": 	c #FDFDFD",
"< 	c #7F7F7F",
"[ 	c #6A6A6A",
"} 	c #737373",
"| 	c #535353",
"1 	c #E5E5E5",
"2 	c #D1D1D1",
"3 	c #D9D9D9",
"4 	c #8A8A8A",
"5 	c #EDEDED",
"6 	c #C5C5C5",
"7 	c #3B3B3B",
"8 	c #F1F1F1",
"9 	c #E1E1E1",
"0 	c #D2D2D2",
"a 	c #E8E8E8",
"b 	c #EFEFEF",
"c 	c #C2C2C2",
"d 	c #BEBEBE",
"e 	c #A5A5A5",
"f 	c #D7D7D7",
"g 	c #C0C0C0",
"h 	c #E2E2E2",
"i 	c #8B8B8B",
"j 	c #A6A6A6",
"k 	c #898989",
"l 	c #A2A2A2",
"m 	c #363636",
"n 	c #909090",
"o 	c #C3C3C3",
"p 	c #757575",
"q 	c #303030",
"r 	c #2E2E2E",
"s 	c #636363",
"t 	c #5C5C5C",
"u 	c #161616",
"v 	c #2A2A2A",
"w 	c #626262",
"x 	c #686868",
"y 	c #353535",
"z 	c #585858",
"A 	c #6C6C6C",
"B 	c #4B4B4B",
"C 	c #262626",
"D 	c #666666",
"E 	c #0D0D0D",
"F 	c #B5B5B5",
"G 	c #DBDBDB",
"H 	c #FAFAFA",
"I 	c #F7F7F7",
"J 	c #DDDDDD",
"K 	c #474747",
"L 	c #6E6E6E",
"M 	c #FBFBFB",
"N 	c #D3D3D3",
"O 	c #A0A0A0",
"P 	c #8F8F8F",
"Q 	c #CBCBCB",
"R 	c #B7B7B7",
"S 	c #ADADAD",
"T 	c #F9F9F9",
"U 	c #404040",
"V 	c #F5F5F5",
"W 	c #CECECE",
"X 	c #5F5F5F",
"Y 	c #D4D4D4",
"Z 	c #ACACAC",
"` 	c #323232",
" .	c #868686",
"..	c #FEFEFE",
"+.	c #CCCCCC",
"@.	c #ECECEC",
"#.	c #B1B1B1",
"$.	c #EAEAEA",
"%.	c #808080",
"&.	c #F2F2F2",
"*.	c #9F9F9F",
"=.	c #D8D8D8",
"-.	c #E3E3E3",
";.	c #EBEBEB",
">.	c #BFBFBF",
",.	c #3D3D3D",
"'.	c #F4F4F4",
").	c #DFDFDF",
"!.	c #707070",
"~.	c #555555",
"{.	c #FCFCFC",
"].	c #E7E7E7",
"^.	c #8D8D8D",
"/.	c #7A7A7A",
"(.	c #454545",
"_.	c #333333",
":.	c #BBBBBB",
"<.	c #E0E0E0",
"[.	c #F0F0F0",
"}.	c #525252",
"|.	c #747474",
"1.	c #A7A7A7",
"2.	c #929292",
"3.	c #858585",
"4.	c #9C9C9C",
"5.	c #C8C8C8",
"6.	c #B6B6B6",
"7.	c #969696",
"8.	c #A9A9A9",
"9.	c #5B5B5B",
"0.	c #DADADA",
"a.	c #E9E9E9",
"b.	c #999999",
"c.	c #888888",
"d.	c #ABABAB",
"e.	c #B2B2B2",
"f.	c #E4E4E4",
"g.	c #D5D5D5",
"h.	c #4D4D4D",
"i.	c #7C7C7C",
"j.	c #4A4A4A",
"k.	c #565656",
"l.	c #575757",
"m.	c #5A5A5A",
"n.	c #9E9E9E",
"o.	c #CDCDCD",
"p.	c #BDBDBD",
"q.	c #2C2C2C",
"r.	c #979797",
"s.	c #8E8E8E",
"t.	c #DEDEDE",
"u.	c #606060",
"v.	c #5D5D5D",
"w.	c #1F1F1F",
"x.	c #A4A4A4",
"y.	c #7E7E7E",
"z.	c #848484",
"A.	c #191919",
"B.	c #8C8C8C",
"C.	c #828282",
"D.	c #939393",
"E.	c #121212",
"F.	c #959595",
"G.	c #545454",
"H.	c #414141",
"I.	c #BABABA",
"J.	c #949494",
"K.	c #A1A1A1",
"L.	c #434343",
"M.	c #CACACA",
"N.	c #EEEEEE",
"O.	c #C7C7C7",
"P.	c #222222",
"Q.	c #777777",
"R.	c #727272",
"S.	c #CFCFCF",
"T.	c #4C4C4C",
"U.	c #1C1C1C",
"V.	c #DCDCDC",
"W.	c #616161",
"X.	c #060606",
"Y.	c #C6C6C6",
"Z.	c #878787",
"`.	c #D0D0D0",
" +	c #818181",
".+	c #9A9A9A",
"++	c #7B7B7B",
"@+	c #797979",
"#+	c #787878",
"$+	c #3C3C3C",
"%+	c #424242",
"&+	c #838383",
"*+	c #4E4E4E",
". . . . . . . . . . . . . . . . . . . . . . . . . . . . . . . . . . . . . . . . . . . . . . . . . . . . . . . . . . . . . . . . . . . . . . . . . . . . . . . . . . . . . . . . . . . . . . . . . . . . . . . . . . . . . . . . . . . . . . . . . . . . . . . . . . . . . . . . . . . . . . . . . . . . . . . . . . . . . . . . . ",
"+ . . . . . . . . . . . . . . . . . . . . . . . . . . . . . . . . . . . . . . . . . . . . . . . . . . . . . . . . . . . . . . . . . . . . . . . . . . . . . . . . . . . . . . . . . . . . . . . . . . . . . . . . . . . . . . . . . . . . . . . . . . . . . . . . . . . . . . . . . . . . . . . . . . . . . . . . . . . . . . . @ ",
"+ + . . . . . . . . . . . . . . . . . . . . . . . . . . . . . . . . . . . . . . . . . . . . . . . . . . . . . . . . . . . . . . . . . . . . . . . . . . . . . . . . . . . . . . . . . . . . . . . . . . . . . . . . . . . . . . . . . . . . . . . . . . . . . . . . . . . . . . . . . . . . . . . . . . . . . . . . . . . . . @ @ ",
"+ + + . . . . . . . . . . . . . . . . . . . . . . . . . . . . . . . . . . . . . . . . . . . . . . . . . . . . . . . . . . . . . . . . . . . . . . . . . . . . . . . . . . . . . . . . . . . . . . . . . . . . . . . . . . . . . . . . . . . . . . . . . . . . . . . . . . . . . . . . . . . . . . . . . . . . . . . . . . . @ @ @ ",
"+ + + + # # # # # # # # # # # # # # # # # # # # # # # # # # # # # # # # # # # # # # # # # # # # # # # # # # # # # # # # # # # # # # # # # # # # # # # # # # # # # # # # # # # # # # # # # # # # # # # # # # # # # # # # # # # # # # # # # # # # # # # # # # # # # # # # # # # # # # # # # # # # # # # # # # # # # # # # # @ @ @ @ ",
"+ + + + # # # # # # # # # # # # # # # # # # # # # # # # # # # # # # # # # # # # # # # # # # # # # # # # # # # # # # # # # # # # # # # # # # # # # # # # # # # # # # # # # # # # # # # # # # # # # # # # # # # # # # # # # # # # # # # # # # # # # # # # # # # # # # # # # # # # # # # # # # # # # # # # # # # # # # # # # @ @ @ @ ",
"+ + + + # $ % % % % % % % % % % % % & # # # # * = - ; > # # , ' ) ! # # # # # # # # # # # # # # # # # # # # # # # # # # # # # # # # # # # # # # # # # # # # # # # # # # # # # # # # # # # # # # # # # # # # # # # # # # # # # # # # # # # # # # # # # # # # # # # # # # # # # # # # # # # # # # # # # # # # # # # # # # # @ @ @ @ ",
"+ + + + # ~ @ @ @ @ @ @ @ @ @ @ @ @ { ] # # ^ / @ @ @ ( _ % @ @ @ : < # # # # # # # # # # # # # # # # # # # # # # # # # # # # # [ } } | # # # # # # # # # # # # # # # # # # # # # # # # # # # # # # # # # # # # # # # # # # # # # # # # # # # # # # # # # # # # # # # # # # # # # # # # # # # # # # # # # # # # # # # # # @ @ @ @ ",
"+ + + + # ~ @ @ @ @ @ @ @ @ @ @ @ @ 1 & # # 2 @ @ @ @ 3 4 : @ @ @ : ) # # # # # # # # # # # # # # # # # # # # # # # # # # # # # 5 @ @ 6 7 # # # # # # # # # # # # # # # # # # # # # # # # # # # # # # # # # # # # # # # # # # # # # # # # # # # # # # # # # # # # # # # # # # # # # # # # # # # # # # # # # # # # # # # # @ @ @ @ ",
"+ + + + # ~ @ @ @ 8 9 9 9 9 9 9 9 9 0 & # # a @ @ b c d e @ @ @ f g ) # # # # # # # # # # # # # # # # # # # # # # # # # # # # # 5 @ @ h i # # # # # # # # # # # # # # # # # # # # # # # # # # # # # # # # # # # # # # # # # # # # # # # # # # # # # # # # # # # # # # # # # # # # # # # # # # # # # # # # # # # # # # # # @ @ @ @ ",
"+ + + + # ~ @ @ @ h j k k k k k k k k ] # # 5 @ @ h l m n @ @ @ o p q # # # # # r s t u # # # # # # # # # # v w x y # # # # # # 5 @ @ h i # # # # # # u z A B # # # # # # # # # # # # # C D # # # # # z ^ t E # # # # # # # # # # # # # # # # # # # # # # # # # # # # # # # # # # # # # # # # # # # # # # # # # # # # # # @ @ @ @ ",
"+ + + + # ~ @ @ @ h i # # # # # # # # # F G H @ @ I 1 G 1 @ @ @ b J K # # # L f M @ @ M N s # # # # # # } f M @ @ : J , # # O G H @ @ I 1 P # # # t Q / @ @ @ b R y # # # # S H H 8 # F T I * # U o V @ @ @ T W X # # # # # # # # # # # # # # # # # # # # # # # # # # # # # # # # # # # # # # # # # # # # # # # # # # # # @ @ @ @ ",
"+ + + + # ~ @ @ @ h i # # # # # # # # # Y @ @ @ @ @ @ @ @ @ @ @ @ @ Z ` #  .H @ @ @ @ @ @ H P # # # # n M @ @ @ @ @ @ ..e # % @ @ @ @ @ @ +.x # , / @ @ @ @ @ @ @ @._ # # # #.@ @ M 3 @ @ M F U $.@ @ @ @ @ @ @ T %.# # # # # # # # # # # # # # # # # # # # # # # # # # # # # # # # # # # # # # # # # # # # # # # # # # # @ @ @ @ ",
"+ + + + # ~ @ @ @ &.N ( ( ( ( ( ( R # # *.=.M @ @ &.-.-.;.@ @ @ . -.>.,.K '.@ @ / ).9 T @ @ T !.# # ~.I @ @ {.a ].M @ @ M < ^.N M @ @ &.-.+./.(.&.@ @ @ 5 1 + @ @ @ ]._.# # #.@ @ : {.@ @ M F :.@ @ @ $.<.a {.@ @ [.}.# # # # # # # # # # # # # # # # # # # # # # # # # # # # # # # # # # # # # # # # # # # # # # # # # # @ @ @ @ ",
"+ + + + # ~ @ @ @ @ @ @ @ @ @ @ @ /  .# # |.&.@ @ h 1.^.F @ @ @ o 2.^.v F @ @ H g ' 3.4.{.@ @ =.r # :.@ @ : 5.6.7.8.: @ @ f y D &.@ @ h 1.^.9.6.@ @ @ f :.*.& 9 @ @ @ F # # #.@ @ @ M 0.+.Q F -.@ @ a.:.b.c.>.@ @ @ d.# # # # # # # # # # # # # # # # # # # # # # # # # # # # # # # # # # # # # # # # # # # # # # # # # # @ @ @ @ ",
"+ + + + # ~ @ @ @ @ @ @ @ @ @ @ @ T e.# # # 5 @ @ h i # ^.@ @ @ o ,.# # f.@ @ 1 ; q # # g.@ @ b < # . @ @ a - h.# # 0 T T -.i.# 5 @ @ h i # # 1 @ @ &.% p # # j.M @ @ 9 k.# #.@ @ @ N F %.t l.].@ @ H Q m.# v n.o.o.p.q.# # # # # # # # # # # # # # # # # # # # # # # # # # # # # # # # # # # # # # # # # # # # # # # # # @ @ @ @ ",
"+ + + + # ~ @ @ @ [.).).).).).).).G e.# # # 5 @ @ h i # ^.@ @ @ o ,.# # H @ @ + 9 Y Y Y ;.@ @ M = # M @ @ 0.7.# # # # r.e.e.s.# 5 @ @ h i # # M @ @ t.1.# # # # ).@ @ 5 k # #.@ @ ..p.A # # # c @ @ @ @ @ $.g c.u.v.v.w.# # # # # # # # # # # # # # # # # # # # # # # # # # # # # # # # # # # # # # # # # # # # # # # # # @ @ @ @ ",
"+ + + + # ~ @ @ @ h x.3.3.3.3.3.3.3.y.# # # 5 @ @ h i # ^.@ @ @ o ,.# C @ @ @ @ @ @ @ @ @ @ @ @ F v @ @ @ g.i.# # # # # # # # # 5 @ @ h i # v @ @ @ { z.# # # # W @ @ 8 n.# #.@ @ M :.A.# # # ,.1 @ @ @ @ @ @ @ 8 B.# # # # # # # # # # # # # # # # # # # # # # # # # # # # # # # # # # # # # # # # # # # # # # # # # # # @ @ @ @ ",
"+ + + + # ~ @ @ @ h i # # # # # # # # # # # 5 @ @ h i # ^.@ @ @ o ,.# u @ @ @ b . . . . . . . . % A.@ @ @ 3 !.# # # # # # # # # 5 @ @ h i # E ..@ @ G |.# # # # f @ @ b e # #.@ @ M F # # # # # v 6.<.'.@ @ @ @ @ : C.# # # # # # # # # # # # # # # # # # # # # # # # # # # # # # # # # # # # # # # # # # # # # # # # # # @ @ @ @ ",
"+ + + + # ~ @ @ @ h i # # # # # # # # # # # 5 @ @ h i # ^.@ @ @ o ,.# # '.@ @ G l D.D.D.D.D.D.D.D.E.+ @ @ -./.# # # 7.) ) F.# # 5 @ @ h i # # b @ @ a y.# # # u b @ @ a = # #.@ @ M F # # # # # # # G.c.6.G + @ @ @ 3 H.# # # # # # # # # # # # # # # # # # # # # # # # # # # # # # # # # # # # # # # # # # # # # # # # # @ @ @ @ ",
"+ + + + # ~ @ @ @ h i # # # # # # # # # # # 5 @ @ h i # ^.@ @ @ o ,.# # { @ @ @.y.# # # 1.0 0 I.# # g.@ @ H J.# # r &.@ @ +.A # 5 @ @ h i # # o.@ @ : 1.# # # K.@ @ @ { 7.# #.@ @ M F # # # p -.-.-.v.# # L.C.{.@ @ t., # # # # # # # # # # # # # # # # # # # # # # # # # # # # # # # # # # # # # # # # # # # # # # # # # @ @ @ @ ",
"+ + + + # ~ @ @ @ @ @ @ @ @ @ @ @ @ @ # # # 5 @ @ h i # ^.@ @ @ o ,.# # n @ @ @ 0 * B Z {.@ @ M.c.# P @ @ @ N.i C.{ @ @ ..O. .# ;.@ @ 5 s.P.# Q...@ @ / l Q.! H @ @ T p.} # #.@ @ M F # # # h.: @ @ @.^.X R.:.@ @ @ S.3.# # # # # # # # # # # # # # # # # # # # # # # # # # # # # # # # # # # # # # # # # # # # # # # # # @ @ @ @ ",
"+ + + + # ~ @ @ @ @ @ @ @ @ @ @ @ @ @ % # # 5 @ @ h i # ^.@ @ @ o ,.# # # 3 @ @ @ @ @ @ @ @ 5 % i.# # 3 @ @ @ @ @ @ @ @ h :.T.# =.@ @ @ @ 8.u # c @ @ @ @ @ @ @ @ : W e.U.# #.@ @ M F # # # # o.@ @ @ @ @ @ @ @ @ [.% s # # # # # # # # # # # # # # # # # # # # # # # # # # # # # # # # # # # # # # # # # # # # # # # # # @ @ @ @ ",
"+ + + + # ~ @ @ @ @ @ @ @ @ @ @ @ @ @ % # # 5 @ @ h i # ^.@ @ @ o ,.# # # C V...@ @ @ @ : h p.n.E # # P.0...@ @ @ @ : <.% B.# # %.{.@ @ @ 3 /.# # 6 M @ @ @ @ @ V o.) W.# # #.@ @ M F # # # # P.=...@ @ @ @ @ @ 5 ( = # # # # # # # # # # # # # # # # # # # # # # # # # # # # # # # # # # # # # # # # # # # # # # # # # # @ @ @ @ ",
"+ + + + # # $ % % % % % % % % % % % % % # # # ' % % i # # D % % % ,.# # # # A.x.3 h 9 f ( ) i u # # # # u K.=.9 h =.o ) c.X.# # # , 0.h t.Y./.# # # Z.`.).h J W % S v.# # # #  +% % F # # # # # u .+N ).-.9 0.5.% *._.# # # # # # # # # # # # # # # # # # # # # # # # # # # # # # # # # # # # # # # # # # # # # # # # # # @ @ @ @ ",
"+ + + + # # # # # # # # # # # # # # # # # # # # # # # # # # # # # # # # # # # # (.++i 4 p y # # # # # # # # H.@+4 i #+$+# # # # # # %+< B.z.K # # # # v L  .B.&+u.E # # # # # # # # # # # # # # # # _.!. .^.4 i.*+# # # # # # # # # # # # # # # # # # # # # # # # # # # # # # # # # # # # # # # # # # # # # # # # # # # # @ @ @ @ ",
"+ + + + # # # # # # # # # # # # # # # # # # # # # # # # # # # # # # # # # # # # # # # # # # # # # # # # # # # # # # # # # # # # # # # # # # # # # # # # # # # # # # # # # # # # # # # # # # # # # # # # # # # # # # # # # # # # # # # # # # # # # # # # # # # # # # # # # # # # # # # # # # # # # # # # # # # # # # # # # @ @ @ @ ",
"+ + + + # # # # # # # # # # # # # # # # # # # # # # # # # # # # # # # # # # # # # # # # # # # # # # # # # # # # # # # # # # # # # # # # # # # # # # # # # # # # # # # # # # # # # # # # # # # # # # # # # # # # # # # # # # # # # # # # # # # # # # # # # # # # # # # # # # # # # # # # # # # # # # # # # # # # # # # # # @ @ @ @ ",
"+ + + + # # # # # # # # # # # # # # # # # # # # # # # # # # # # # # # # # # # # # # # # # # # # # # # # # # # # # # # # # # # # # # # # # # # # # # # # # # # # # # # # # # # # # # # # # # # # # # # # # # # # # # # # # # # # # # # # # # # # # # # # # # # # # # # # # # # # # # # # # # # # # # # # # # # # # # # # # @ @ @ @ ",
"+ + + + # # # # # # # # # # # # # # # # # # # # # # # # # # # # # # # # # # # # # # # # # # # # # # # # # # # # # # # # # # # # # # # # # # # # # # # # # # # # # # # # # # # # # # # # # # # # # # # # # # # # # # # # # # # # # # # # # # # # # # # # # # # # # # # # # # # # # # # # # # # # # # # # # # # # # # # # # @ @ @ @ ",
"+ + + + # # # # # # # # # # # # # # # # # # # # # # # # # # # # # # # # # # # # # # # # # # # # # # # # # # # # # # # # # # # # # # # # # # # # # # # # # # # # # # # # # # # # # # # # # # # # # # # # # # # # # # # # # # # # # # # # # # # # # # # # # # # # # # # # # # # # # # # # # # # # # # # # # # # # # # # # # @ @ @ @ ",
"+ + + + @ @ @ @ @ @ @ @ @ @ @ @ @ @ @ @ @ @ @ @ @ @ @ @ @ @ @ @ @ @ @ @ @ @ @ @ @ @ @ @ @ @ @ @ @ @ @ @ @ @ @ @ @ @ @ @ @ @ @ @ @ @ @ @ @ @ @ @ @ @ @ @ @ @ @ @ @ @ @ @ @ @ @ @ @ @ @ @ @ @ @ @ @ @ @ @ @ @ @ @ @ @ @ @ @ @ @ @ @ @ @ @ @ @ @ @ @ @ @ @ @ @ @ @ @ @ @ @ @ @ @ @ @ @ @ @ @ @ @ @ @ @ @ @ @ @ @ @ @ @ @ @ @ @ @ @ @ ",
"+ + + @ @ @ @ @ @ @ @ @ @ @ @ @ @ @ @ @ @ @ @ @ @ @ @ @ @ @ @ @ @ @ @ @ @ @ @ @ @ @ @ @ @ @ @ @ @ @ @ @ @ @ @ @ @ @ @ @ @ @ @ @ @ @ @ @ @ @ @ @ @ @ @ @ @ @ @ @ @ @ @ @ @ @ @ @ @ @ @ @ @ @ @ @ @ @ @ @ @ @ @ @ @ @ @ @ @ @ @ @ @ @ @ @ @ @ @ @ @ @ @ @ @ @ @ @ @ @ @ @ @ @ @ @ @ @ @ @ @ @ @ @ @ @ @ @ @ @ @ @ @ @ @ @ @ @ @ @ @ ",
"+ + @ @ @ @ @ @ @ @ @ @ @ @ @ @ @ @ @ @ @ @ @ @ @ @ @ @ @ @ @ @ @ @ @ @ @ @ @ @ @ @ @ @ @ @ @ @ @ @ @ @ @ @ @ @ @ @ @ @ @ @ @ @ @ @ @ @ @ @ @ @ @ @ @ @ @ @ @ @ @ @ @ @ @ @ @ @ @ @ @ @ @ @ @ @ @ @ @ @ @ @ @ @ @ @ @ @ @ @ @ @ @ @ @ @ @ @ @ @ @ @ @ @ @ @ @ @ @ @ @ @ @ @ @ @ @ @ @ @ @ @ @ @ @ @ @ @ @ @ @ @ @ @ @ @ @ @ @ @ @ ",
"+ @ @ @ @ @ @ @ @ @ @ @ @ @ @ @ @ @ @ @ @ @ @ @ @ @ @ @ @ @ @ @ @ @ @ @ @ @ @ @ @ @ @ @ @ @ @ @ @ @ @ @ @ @ @ @ @ @ @ @ @ @ @ @ @ @ @ @ @ @ @ @ @ @ @ @ @ @ @ @ @ @ @ @ @ @ @ @ @ @ @ @ @ @ @ @ @ @ @ @ @ @ @ @ @ @ @ @ @ @ @ @ @ @ @ @ @ @ @ @ @ @ @ @ @ @ @ @ @ @ @ @ @ @ @ @ @ @ @ @ @ @ @ @ @ @ @ @ @ @ @ @ @ @ @ @ @ @ @ @ @ "};
