/* XPM */
static char * edt_keyhelp_xpm[] = {
"128 35 154 2",
"  	c #E6E6E6",
". 	c #F3F3F3",
"+ 	c #FFFFFF",
"@ 	c #000000",
"# 	c #F1F1F1",
"$ 	c #7D7D7D",
"% 	c #C4C4C4",
"& 	c #C1C1C1",
"* 	c #EBEBEB",
"= 	c #656565",
"- 	c #E4E4E4",
"; 	c #787878",
"> 	c #ECECEC",
", 	c #BDBDBD",
"' 	c #6D6D6D",
") 	c #EEEEEE",
"! 	c #FCFCFC",
"~ 	c #B5B5B5",
"{ 	c #F0F0F0",
"] 	c #0D0D0D",
"^ 	c #C2C2C2",
"/ 	c #B9B9B9",
"( 	c #696969",
"_ 	c #DEDEDE",
": 	c #F9F9F9",
"< 	c #EDEDED",
"[ 	c #9D9D9D",
"} 	c #FEFEFE",
"| 	c #565656",
"1 	c #C6C6C6",
"2 	c #BEBEBE",
"3 	c #BCBCBC",
"4 	c #F5F5F5",
"5 	c #F7F7F7",
"6 	c #CBCBCB",
"7 	c #353535",
"8 	c #555555",
"9 	c #D5D5D5",
"0 	c #B2B2B2",
"a 	c #5A5A5A",
"b 	c #F6F6F6",
"c 	c #EFEFEF",
"d 	c #949494",
"e 	c #B4B4B4",
"f 	c #FBFBFB",
"g 	c #CDCDCD",
"h 	c #757575",
"i 	c #DCDCDC",
"j 	c #424242",
"k 	c #717171",
"l 	c #D1D1D1",
"m 	c #9B9B9B",
"n 	c #E1E1E1",
"o 	c #8C8C8C",
"p 	c #1C1C1C",
"q 	c #5D5D5D",
"r 	c #454545",
"s 	c #919191",
"t 	c #FAFAFA",
"u 	c #797979",
"v 	c #7C7C7C",
"w 	c #F4F4F4",
"x 	c #6A6A6A",
"y 	c #A9A9A9",
"z 	c #8F8F8F",
"A 	c #C8C8C8",
"B 	c #494949",
"C 	c #6E6E6E",
"D 	c #161616",
"E 	c #E7E7E7",
"F 	c #CECECE",
"G 	c #666666",
"H 	c #C5C5C5",
"I 	c #626262",
"J 	c #DFDFDF",
"K 	c #585858",
"L 	c #6C6C6C",
"M 	c #E2E2E2",
"N 	c #A4A4A4",
"O 	c #D2D2D2",
"P 	c #DDDDDD",
"Q 	c #7E7E7E",
"R 	c #F8F8F8",
"S 	c #262626",
"T 	c #767676",
"U 	c #777777",
"V 	c #ADADAD",
"W 	c #D0D0D0",
"X 	c #2E2E2E",
"Y 	c #898989",
"Z 	c #D8D8D8",
"` 	c #BBBBBB",
" .	c #B1B1B1",
"..	c #7F7F7F",
"+.	c #DBDBDB",
"@.	c #3B3B3B",
"#.	c #979797",
"$.	c #D4D4D4",
"%.	c #A3A3A3",
"&.	c #383838",
"*.	c #969696",
"=.	c #737373",
"-.	c #AEAEAE",
";.	c #ABABAB",
">.	c #D6D6D6",
",.	c #989898",
"'.	c #E9E9E9",
").	c #636363",
"!.	c #3D3D3D",
"~.	c #C0C0C0",
"{.	c #909090",
"].	c #7A7A7A",
"^.	c #E5E5E5",
"/.	c #B6B6B6",
"(.	c #474747",
"_.	c #D7D7D7",
":.	c #C7C7C7",
"<.	c #535353",
"[.	c #4F4F4F",
"}.	c #A7A7A7",
"|.	c #9F9F9F",
"1.	c #BFBFBF",
"2.	c #5C5C5C",
"3.	c #C3C3C3",
"4.	c #F2F2F2",
"5.	c #9A9A9A",
"6.	c #999999",
"7.	c #4D4D4D",
"8.	c #929292",
"9.	c #808080",
"0.	c #C9C9C9",
"a.	c #ACACAC",
"b.	c #E0E0E0",
"c.	c #5F5F5F",
"d.	c #8B8B8B",
"e.	c #848484",
"f.	c #323232",
"g.	c #AAAAAA",
"h.	c #404040",
"i.	c #B8B8B8",
"j.	c #B0B0B0",
"k.	c #515151",
"l.	c #959595",
"m.	c #222222",
"n.	c #878787",
"o.	c #8D8D8D",
"p.	c #858585",
"q.	c #B7B7B7",
"r.	c #FDFDFD",
"s.	c #A8A8A8",
"t.	c #B3B3B3",
"u.	c #CACACA",
"v.	c #4B4B4B",
"w.	c #707070",
"                                                                                                                                                                                                                                                                ",
".                                                                                                                                                                                                                                                             + ",
". .                                                                                                                                                                                                                                                         + + ",
". . .                                                                                                                                                                                                                                                     + + + ",
". . . . @ @ @ @ @ @ @ @ @ @ @ @ @ @ @ @ @ @ @ @ @ @ @ @ @ @ @ @ @ @ @ @ @ @ @ @ @ @ @ @ @ @ @ @ @ @ @ @ @ @ @ @ @ @ @ @ @ @ @ @ @ @ @ @ @ @ @ @ @ # $ @ # $ @ @ @ @ @ @ @ @ @ @ @ @ @ @ @ @ @ @ @ @ @ @ @ @ @ @ @ @ % & @ @ @ @ @ @ @ @ @ @ @ @ @ @ @ @ + + + + ",
". . . . @ @ * + = @ @ @ - + ; @ @ @ @ @ @ @ @ @ @ @ @ @ @ @ @ @ @ @ @ @ @ @ @ @ @ @ @ @ @ @ @ @ @ @ @ @ @ @ @ @ @ @ @ @ @ @ @ @ @ @ @ @ @ @ @ @ @ # $ @ # $ @ @ @ @ @ @ @ @ @ @ @ @ @ @ @ @ @ @ @ @ @ @ @ @ @ @ @ @ % & @ @ @ @ @ @ @ @ @ @ @ @ @ @ @ @ + + + + ",
". . . . @ @ * > , @ @ ' ) ! ; @ @ @ @ @ @ @ @ @ @ @ @ @ @ @ @ @ @ @ @ @ @ @ @ @ @ @ @ @ @ @ @ @ @ @ @ @ @ @ @ @ @ @ @ @ @ @ @ @ @ @ @ @ @ @ @ @ @ # $ @ # $ @ @ @ @ @ @ @ @ @ @ @ @ @ @ @ @ @ @ @ @ @ @ @ @ @ @ @ @ % & @ @ @ @ @ @ @ @ @ @ @ @ @ @ @ @ + + + + ",
". . . . @ @ * ~ { ] @ ^ / ! ; @ ( _ : < [ @ @ } | @ @ 1 2 @ @ 3 4 5 6 7 @ 8 9 5 # 0 @ @ @ @ @ @ 3 4 5 6 7 @ a 9 b c d @ @ 4 e * b @ ( _ : < [ @ @ # $ @ # $ @ @ @ @ @ 4 , > f g h   f i j @ @ ( _ : < [ @ @ k   : i l & @ @ 8 9 5 # 0 @ @ 3 4 5 6 7 @ @ + + + + ",
". . . . @ @ * m n o p . q ! ; p > ^ r s t u @ } | @ @ 1 2 @ v w x r y z ] - A B C ) d @ @ @ @ v w x r y z D E F 8 G H @ @ 4 - I @ p > ^ r s t u @ # $ @ # $ @ @ @ @ @ 4 J K L b < ; B M e @ p > ^ r s t u p ) , j m } & @ ] - A B C ) d v w x r y z @ @ + + + + ",
". . . . @ @ * m N O d P @ ! ; Q R S @ @ F % @ } | @ @ 1 2 @ T { | @ @ @ U R p @ @ V W @ @ @ @ T { | @ @ @ u : X @ @ @ @ @ 4 s @ @ Q R S @ @ F % @ # $ @ # $ @ @ @ @ @ 4 Y @ @ Z ` @ @  .l @ Q R S @ @ F % ..b p @ @ +.& @ U R p @ @ V W T { | @ @ @ @ @ + + + + ",
". . . . @ @ * m @.4 _ [ @ ! ; #.* @ @ @ / $.@ } | @ @ 1 2 @ @ %.M - / &.*.+ } } + + J @ @ @ @ @ %.M - / &.*.* @ @ @ @ @ @ 4 h @ @ #.* @ @ @ / $.@ # $ @ # $ @ @ @ @ @ 4 =.@ @ $.-.@ @ ;.>.@ #.* @ @ @ / $.,.'.@ @ @ A & @ *.+ } } + + J @ %.M - / &.@ @ + + + + ",
". . . . @ @ * m @ F 5 X @ ! ; Q R S @ @ F % @ t ).@ @ O 2 @ @ @ @ !.>.~.u . ] @ @ @ @ @ @ @ @ @ @ @ !.>.~.u : X @ @ @ @ @ 4 =.@ @ Q R S @ @ F % @ # $ @ # $ @ @ @ @ @ 4 =.@ @ $.-.@ @ ;.>.@ Q R S @ @ F % ..b p @ @ +.& @ u . ] @ @ @ @ @ @ @ !.>.~.@ @ + + + + ",
". . . . @ @ * m @ @ @ @ @ ! ; p < ^ r {.f ].@ ^., &.{.f 2 @ *./.a (._.:.D ^.H <.[.}.V @ @ @ @ *./.a (._.:.] E F 8 = H @ @ 4 =.@ @ p < ^ r {.f ].@ # $ @ # $ @ @ @ @ @ 4 =.@ @ $.-.@ @ ;.>.@ p < ^ r {.f ].p ) 3 j ,.} & @ D ^.H <.[.}.V *./.a (._.:.@ @ + + + + ",
". . . . @ @ * m @ @ @ @ @ ! ; @ L J t < |.@ @ Q * : Z l 2 @ 7 1.. R _.[.@ 8 O 4 4 g [.@ @ @ @ 7 1.. R _.[.@ 2._.5 ) d @ @ 4 =.@ @ @ L J t < |.@ @ # $ @ # $ @ @ @ @ @ 4 =.@ @ $.-.@ @ ;.>.@ @ L J t < |.@ @ =.  : i l & @ @ 8 O 4 4 g [.7 1.. R _.[.@ @ + + + + ",
". . . . @ @ @ @ @ @ @ @ @ @ @ @ @ @ @ @ @ @ @ @ @ @ @ @ @ @ @ @ @ @ @ @ @ @ @ @ @ @ @ @ @ @ @ @ @ @ @ @ @ @ @ @ @ @ @ @ @ @ @ @ @ @ @ @ @ @ @ @ @ @ @ @ @ @ @ @ @ @ @ @ @ @ @ @ @ @ @ @ @ @ @ @ @ @ @ @ @ @ @ @ @ @ @ @ @ @ @ @ @ @ @ @ @ @ @ @ @ @ @ @ + + + + ",
". . . . @ @ @ @ @ @ @ @ @ @ @ @ @ @ @ @ @ @ @ @ @ @ @ @ @ @ @ @ @ @ @ @ @ @ @ @ @ @ @ @ @ @ @ @ @ @ @ @ @ @ @ @ @ @ @ @ @ @ @ @ @ @ @ @ @ @ @ @ @ @ @ @ @ @ @ @ @ @ @ @ @ @ @ @ @ @ @ @ @ @ @ @ @ @ @ @ @ @ @ @ @ @ @ @ @ @ @ @ @ @ @ @ @ @ @ @ @ @ @ @ + + + + ",
". . . . @ @ @ @ @ @ @ @ @ @ @ @ @ @ @ @ @ @ @ @ @ @ @ @ @ @ @ @ @ @ @ @ @ @ @ @ @ @ @ @ @ @ @ @ @ @ @ @ @ @ @ @ @ @ @ @ @ @ @ @ @ @ @ @ @ @ @ @ @ @ @ @ @ @ @ @ @ @ @ @ @ @ @ @ @ @ @ @ @ @ @ @ @ @ @ @ @ @ @ @ @ @ @ @ @ @ @ @ @ @ @ @ @ @ @ @ @ @ @ @ + + + + ",
". . . . @ @ @ @ @ @ @ @ @ @ @ @ @ @ @ @ @ @ @ @ @ @ @ @ @ @ @ @ @ @ @ @ @ @ @ @ @ @ @ @ @ @ @ @ @ @ @ @ @ @ @ @ @ @ @ @ @ @ @ @ @ @ @ @ @ @ @ @ @ @ @ @ @ @ @ @ @ @ @ @ @ @ @ @ @ @ @ @ @ @ @ @ @ @ @ @ @ @ @ @ @ @ @ @ @ @ @ @ @ @ @ @ @ @ @ @ @ @ @ @ + + + + ",
". . . . @ @ @ @ @ @ @ @ @ @ @ @ @ @ @ @ @ @ @ @ @ @ @ @ @ @ @ @ @ @ @ @ @ @ @ @ @ @ @ @ @ @ @ @ @ @ @ @ @ @ @ @ @ @ @ @ @ @ @ @ @ @ @ @ @ @ @ @ @ @ @ @ @ @ @ @ @ @ @ @ @ @ @ @ @ @ @ @ @ @ @ @ @ @ @ @ @ @ @ @ @ @ @ @ @ @ @ @ @ @ @ @ @ @ @ @ @ @ @ @ + + + + ",
". . . . @ @ @ @ @ @ @ @ @ @ @ @ @ @ @ @ @ @ @ @ @ @ @ @ @ @ @ @ @ @ @ @ @ % & @ @ @ @ @ @ @ @ @ @ @ @ @ @ @ @ @ @ 4 =.@ @ @ @ @ @ @ @ @ @ @ @ @ @ @ @ @ @ @ @ @ @ @ @ @ @ @ @ @ @ @ @ @ @ @ @ @ @ @ @ @ @ @ @ @ @ @ @ @ @ @ @ @ @ @ @ @ @ @ @ @ @ @ @ @ + + + + ",
". . . . @ m + + + + + + 3.@ @ @ @ @ @ @ @ @ @ @ @ @ @ @ @ @ @ @ @ @ @ @ @ % & @ @ @ @ @ !.# [ @ @ j 4.5.@ @ @ @ @ 4 =.@ @ @ @ @ @ @ @ @ @ @ @ @ @ @ @ @ @ @ @ @ @ @ @ @ @ @ @ @ @ @ @ @ @ @ @ @ @ @ @ @ @ @ @ @ @ @ @ @ @ @ @ @ @ @ @ @ @ @ @ @ @ @ @ @ + + + + ",
". . . . @ @ @ @ @ @ 6.: C @ @ @ @ @ @ @ @ @ @ @ @ @ @ @ @ @ @ @ @ @ @ @ @ % & @ @ @ @ @ @ s 4 7.@ F $.@ @ @ @ @ @ 4 =.@ @ @ @ @ @ @ @ @ @ @ @ @ @ @ @ @ @ @ @ @ @ @ @ @ @ @ @ @ @ @ @ @ @ @ @ @ @ @ @ @ @ @ @ @ @ @ @ @ @ @ @ @ @ @ @ @ @ @ @ @ @ @ @ @ + + + + ",
". . . . @ @ @ @ @ L : m @ @ @ @ @ @ E + !   ].@ @ 4 e > : $.X @ @ k   : i l & @ @ @ @ @ @ @ l O 8.4 7.@ @ @ @ @ @ 4 =.@ 9.4.z @ 8 9 5 # 0 @ e Z @ @ @ 0.1 @ 3 4 5 6 7 @ @ @ @ |.+ + + + ^.@ ( _ : < [ @ @ ( _ : < [ @ @ 4 , > f g h   f i j @ @ @ @ @ @ + + + + ",
". . . . @ @ @ @ !.> ^ @ @ @ @ @ @ @ @ @ 7 a.) p @ 4 b.c.a > }.@ p ) , j m } & @ @ @ @ @ @ @ 7.4 R 6.@ @ @ @ @ @ @ 4 =.d.. e.@ ] - A B C ) d <.f [.@ X 5 v v w x r y z @ @ @ @ @ @ @ f.E g.p > ^ r s t u p > ^ r s t u @ 4 J K L b < ; B M e @ @ @ @ @ @ + + + + ",
". . . . @ @ @ @ 9 b.p @ @ @ @ @ @ @ @ @ @ @ { ' @ 4 Y @ @ 1.H @ ..b p @ @ +.& @ @ @ @ @ @ @ @ Z R h.@ @ @ @ @ @ @ 4 i.4.u @ @ U R p @ @ V W @ Z j.@ [ > @ T { | @ @ @ @ @ @ @ @ @ @ O 0.@ Q R S @ @ F % Q R S @ @ F % @ 4 Y @ @ Z ` @ @  .l @ @ @ @ @ @ + + + + ",
". . . . @ @ @ 0 4.k.@ @ @ @ @ @ @ @ a.) ! + + Y @ 4 =.@ @ / 6 @ ,.'.@ @ @ A & @ @ @ @ @ @ @ l.4 P 0.@ @ @ @ @ @ @ 4 4 A @ @ @ *.+ } } + + J @ *.'.@ i /.@ @ %.M - / &.@ @ @ @ @ @ /.n m.@ #.* @ @ @ / $.#.* @ @ @ / $.@ 4 =.@ @ $.-.@ @ ;.>.@ @ @ @ @ @ + + + + ",
". . . . @ @ n.f 9.@ @ @ @ @ @ @ @ ' R ..f.@ { o.@ 4 =.@ @ / 6 @ ..b p @ @ +.& @ @ @ @ @ @ B w 6.K 5 p.@ @ @ @ @ @ 4 d.> q.@ @ u . ] @ @ @ @ @ m.4 8.r.q @ @ @ @ !.>.~.@ @ @ @ @ d c [.@ @ Q R S @ @ F % Q R S @ @ F % @ 4 =.@ @ $.-.@ @ ;.>.@ @ @ @ @ @ + + + + ",
". . . . @ a 4 ;.@ @ @ @ @ @ @ @ @ ].b L !.e + o.@ 4 =.@ @ / 6 @ p ) 3 j ,.} & @ @ @ @ @ @ l O @ @ s.< X @ @ @ @ @ 4 =.K ) t.@ D ^.H <.[.}.V @ @ 3.b J @ @ *./.a (._.:.@ @ @ @ C w U @ @ @ p < ^ r {.f ].p < ^ r {.f ].@ 4 =.@ @ $.-.@ @ ;.>.@ @ @ @ @ @ + + + + ",
". . . . @ t.+ + + + + + Z @ @ @ @ @ % R w u.* o.@ 4 =.@ @ / 6 @ @ =.  : i l & @ @ @ @ @ *.w v.@ @ @ J 1.@ @ @ @ @ 4 =.@ q c j.@ 8 O 4 4 g [.@ @ w.+ N @ @ 7 1.. R _.[.@ @ @ @ / + + + + ^.@ L J t < |.@ @ L J t < |.@ @ 4 =.@ @ $.-.@ @ ;.>.@ @ @ @ @ @ + + + + ",
". . . . @ @ @ @ @ @ @ @ @ @ @ @ @ @ @ @ @ @ @ @ @ @ @ @ @ @ @ @ @ @ @ @ @ @ @ @ @ @ @ @ @ @ @ @ @ @ @ @ @ @ @ @ @ @ @ @ @ @ @ @ @ @ @ @ @ @ @ @ ; f !.@ @ @ @ @ @ @ @ @ @ @ @ @ @ @ @ @ @ @ @ @ @ @ @ @ @ @ @ @ @ @ @ @ @ @ @ @ @ @ @ @ @ @ @ @ @ @ @ @ + + + + ",
". . . . @ @ @ @ @ @ @ @ @ @ @ @ @ @ @ @ @ @ @ @ @ @ @ @ @ @ @ @ @ @ @ @ @ @ @ @ @ @ @ @ @ @ @ @ @ @ @ @ @ @ @ @ @ @ @ @ @ @ @ @ @ @ @ @ @ @ @ p W g @ @ @ @ @ @ @ @ @ @ @ @ @ @ @ @ @ @ @ @ @ @ @ @ @ @ @ @ @ @ @ @ @ @ @ @ @ @ @ @ @ @ @ @ @ @ @ @ @ @ + + + + ",
". . . . + + + + + + + + + + + + + + + + + + + + + + + + + + + + + + + + + + + + + + + + + + + + + + + + + + + + + + + + + + + + + + + + + + + + + + + + + + + + + + + + + + + + + + + + + + + + + + + + + + + + + + + + + + + + + + + + + + + + + + + + + + + + ",
". . . + + + + + + + + + + + + + + + + + + + + + + + + + + + + + + + + + + + + + + + + + + + + + + + + + + + + + + + + + + + + + + + + + + + + + + + + + + + + + + + + + + + + + + + + + + + + + + + + + + + + + + + + + + + + + + + + + + + + + + + + + + + + + ",
". . + + + + + + + + + + + + + + + + + + + + + + + + + + + + + + + + + + + + + + + + + + + + + + + + + + + + + + + + + + + + + + + + + + + + + + + + + + + + + + + + + + + + + + + + + + + + + + + + + + + + + + + + + + + + + + + + + + + + + + + + + + + + + + ",
". + + + + + + + + + + + + + + + + + + + + + + + + + + + + + + + + + + + + + + + + + + + + + + + + + + + + + + + + + + + + + + + + + + + + + + + + + + + + + + + + + + + + + + + + + + + + + + + + + + + + + + + + + + + + + + + + + + + + + + + + + + + + + + + "};
