/* XPM */
static char * mousehelp_xpm[] = {
"128 35 147 2",
"  	c #E6E6E6",
". 	c #F3F3F3",
"+ 	c #FFFFFF",
"@ 	c #000000",
"# 	c #F5F5F5",
"$ 	c #737373",
"% 	c #656565",
"& 	c #E7E7E7",
"* 	c #FEFEFE",
"= 	c #B4B4B4",
"- 	c #EBEBEB",
"; 	c #E4E4E4",
"> 	c #787878",
", 	c #F6F6F6",
"' 	c #D5D5D5",
") 	c #515151",
"! 	c #F1F1F1",
"~ 	c #7D7D7D",
"{ 	c #A2A2A2",
"] 	c #C5C5C5",
"^ 	c #C8C8C8",
"/ 	c #1C1C1C",
"( 	c #ECECEC",
"_ 	c #BDBDBD",
": 	c #6D6D6D",
"< 	c #EEEEEE",
"[ 	c #FCFCFC",
"} 	c #5F5F5F",
"| 	c #CECECE",
"1 	c #D7D7D7",
"2 	c #A8A8A8",
"3 	c #B5B5B5",
"4 	c #F0F0F0",
"5 	c #0D0D0D",
"6 	c #C2C2C2",
"7 	c #B9B9B9",
"8 	c #696969",
"9 	c #DEDEDE",
"0 	c #F9F9F9",
"a 	c #EDEDED",
"b 	c #9D9D9D",
"c 	c #565656",
"d 	c #C6C6C6",
"e 	c #BEBEBE",
"f 	c #BCBCBC",
"g 	c #F7F7F7",
"h 	c #CBCBCB",
"i 	c #353535",
"j 	c #555555",
"k 	c #B2B2B2",
"l 	c #B6B6B6",
"m 	c #DCDCDC",
"n 	c #D1D1D1",
"o 	c #C1C1C1",
"p 	c #D4D4D4",
"q 	c #2E2E2E",
"r 	c #D6D6D6",
"s 	c #AEAEAE",
"t 	c #DDDDDD",
"u 	c #9B9B9B",
"v 	c #E1E1E1",
"w 	c #8C8C8C",
"x 	c #5D5D5D",
"y 	c #454545",
"z 	c #919191",
"A 	c #FAFAFA",
"B 	c #797979",
"C 	c #7C7C7C",
"D 	c #F4F4F4",
"E 	c #6A6A6A",
"F 	c #A9A9A9",
"G 	c #8F8F8F",
"H 	c #494949",
"I 	c #6E6E6E",
"J 	c #949494",
"K 	c #E5E5E5",
"L 	c #C9C9C9",
"M 	c #BBBBBB",
"N 	c #424242",
"O 	c #979797",
"P 	c #FDFDFD",
"Q 	c #E0E0E0",
"R 	c #5A5A5A",
"S 	c #A7A7A7",
"T 	c #D8D8D8",
"U 	c #A4A4A4",
"V 	c #D2D2D2",
"W 	c #7E7E7E",
"X 	c #F8F8F8",
"Y 	c #262626",
"Z 	c #C4C4C4",
"` 	c #767676",
" .	c #777777",
"..	c #ADADAD",
"+.	c #D0D0D0",
"@.	c #7F7F7F",
"#.	c #DADADA",
"$.	c #898989",
"%.	c #BFBFBF",
"&.	c #3B3B3B",
"*.	c #A3A3A3",
"=.	c #E2E2E2",
"-.	c #383838",
";.	c #969696",
">.	c #DFDFDF",
",.	c #808080",
"'.	c #989898",
").	c #E9E9E9",
"!.	c #636363",
"~.	c #3D3D3D",
"{.	c #C0C0C0",
"].	c #F2F2F2",
"^.	c #909090",
"/.	c #FBFBFB",
"(.	c #7A7A7A",
"_.	c #474747",
":.	c #C7C7C7",
"<.	c #161616",
"[.	c #535353",
"}.	c #4F4F4F",
"|.	c #959595",
"1.	c #222222",
"2.	c #EFEFEF",
"3.	c #A6A6A6",
"4.	c #6C6C6C",
"5.	c #9F9F9F",
"6.	c #CDCDCD",
"7.	c #DBDBDB",
"8.	c #E3E3E3",
"9.	c #9A9A9A",
"0.	c #AAAAAA",
"a.	c #858585",
"b.	c #404040",
"c.	c #A5A5A5",
"d.	c #5C5C5C",
"e.	c #EAEAEA",
"f.	c #8E8E8E",
"g.	c #999999",
"h.	c #717171",
"i.	c #666666",
"j.	c #8B8B8B",
"k.	c #848484",
"l.	c #B8B8B8",
"m.	c #B7B7B7",
"n.	c #585858",
"o.	c #B3B3B3",
"p.	c #B0B0B0",
"                                                                                                                                                                                                                                                                ",
".                                                                                                                                                                                                                                                             + ",
". .                                                                                                                                                                                                                                                         + + ",
". . .                                                                                                                                                                                                                                                     + + + ",
". . . . @ @ @ @ @ @ @ @ @ @ @ @ @ @ @ @ @ @ @ @ @ @ @ @ @ @ @ @ @ @ @ @ @ @ @ @ @ @ @ @ @ @ @ @ @ @ @ @ @ @ @ @ @ @ @ @ @ @ @ @ @ @ @ @ @ @ @ @ @ @ @ @ @ @ @ @ @ @ @ @ @ @ @ @ @ @ @ @ @ @ @ @ @ @ @ @ @ @ @ @ @ @ @ @ @ @ @ @ @ @ @ @ @ @ @ @ @ @ @ @ + + + + ",
". . . . @ @ @ @ @ @ @ @ @ @ @ @ @ @ @ @ @ @ @ @ @ @ @ @ @ @ @ @ @ @ @ @ @ @ @ @ @ @ @ @ @ @ @ @ @ @ @ @ @ @ @ @ @ @ @ @ @ @ @ @ @ @ @ @ @ @ @ @ # $ @ @ @ @ @ @ @ @ @ @ @ @ @ @ @ @ @ @ @ @ @ @ @ @ @ @ @ @ @ @ @ @ % & * = @ @ @ @ @ @ @ @ @ @ @ @ @ @ + + + + ",
". . . . @ @ @ - + % @ @ @ ; + > @ @ @ @ @ @ @ @ @ @ @ @ @ @ @ @ @ @ @ @ @ @ @ @ @ @ @ @ @ @ @ @ @ @ @ @ @ - + + , ' ) @ @ ! ~ @ @ @ @ @ @ @ @ @ # $ @ @ @ @ @ @ . ~ @ @ @ @ @ @ @ @ @ @ @ - { @ @ @ @ @ @ @ @ @ @ @ ] ^ / @ . ~ @ @ @ @ @ @ @ @ @ @ @ @ + + + + ",
". . . . @ @ @ - ( _ @ @ : < [ > @ @ @ @ @ @ @ @ @ @ @ @ @ @ @ @ @ @ @ @ @ @ @ @ @ @ @ @ @ @ @ @ @ @ @ @ @ - { @ } ; | @ @ @ @ @ @ @ @ @ @ @ @ @ # $ @ @ @ @ @ @ . ~ @ @ @ @ @ @ @ @ @ @ @ - { @ @ @ @ @ @ @ @ @ @ @ 1 2 @ @ . ~ @ @ @ @ @ @ @ @ @ @ @ @ + + + + ",
". . . . @ @ @ - 3 4 5 @ 6 7 [ > @ 8 9 0 a b @ @ * c @ @ d e @ @ f # g h i @ j ' g ! k @ @ @ @ @ @ @ @ @ @ - { @ @ l   @ @ ! ~ @ $   0 m n o @ @ # = ( 0 p q @ r + + + s @ @ @ @ @ @ @ @ @ - { @ @ @ @ j ' g ! k @ t + + + a + + + s @ @ @ @ @ @ @ @ @ @ + + + + ",
". . . . @ @ @ - u v w / . x [ > / ( 6 y z A B @ * c @ @ d e @ C D E y F G 5 ; ^ H I < J @ @ @ @ @ @ @ @ @ - { @ x K L @ @ ! ~ / < M N O P o @ @ # Q } R ( S @ @ . ~ @ @ @ @ @ @ @ @ @ @ @ - { @ @ @ 5 ; ^ H I < J @ T 2 @ @ . ~ @ @ @ @ @ @ @ @ @ @ @ @ + + + + ",
". . . . @ @ @ - u U V J t @ [ > W X Y @ @ | Z @ * c @ @ d e @ ` 4 c @ @ @  .X / @ @ ..+.@ @ @ @ @ @ @ @ @ - + + + v i @ @ ! ~ @., / @ @ #.o @ @ # $.@ @ %.] @ @ . ~ @ @ @ @ @ @ @ @ @ @ @ - { @ @ @  .X / @ @ ..+.@ T 2 @ @ . ~ @ @ @ @ @ @ @ @ @ @ @ @ + + + + ",
". . . . @ @ @ - u &.# 9 b @ [ > O - @ @ @ 7 p @ * c @ @ d e @ @ *.=.; 7 -.;.+ * * + + >.@ @ @ @ @ @ @ @ @ - { 5 ,., z @ @ ! ~ '.).@ @ @ ^ o @ @ # $ @ @ 7 h @ @ . ~ @ @ @ @ @ @ @ @ @ @ @ - { @ @ @ ;.+ * * + + >.@ T 2 @ @ . ~ @ @ @ @ @ @ @ @ @ @ @ @ + + + + ",
". . . . @ @ @ - u @ | g q @ [ > W X Y @ @ | Z @ A !.@ @ V e @ @ @ @ ~.r {.B . 5 @ @ @ @ @ @ @ @ @ @ @ @ @ - { @ @ k - 5 @ ! ~ ,., / @ @ #.o @ @ # $ @ @ 7 h @ @ ].~ @ @ @ @ @ @ @ @ @ @ @ - { @ @ @ B . 5 @ @ @ @ @ T 2 @ @ ].~ @ @ @ @ @ @ @ @ @ @ @ @ + + + + ",
". . . . @ @ @ - u @ @ @ @ @ [ > / a 6 y ^./.(.@ K _ -.^./.e @ ;.l R _.1 :.<.K ] [.}.S ..@ h V @ @ @ @ @ @ - { @ @ &.g |.@ ! ~ 1.2.M N ;.P o @ @ # $ @ @ 7 h @ @ & 3.5 @ @ h V @ @ @ @ @ @ - { @ @ @ <.K ] [.}.S ..@ T 2 @ @ & 3.5 @ @ h V @ @ @ @ @ @ @ + + + + ",
". . . . @ @ @ - u @ @ @ @ @ [ > @ 4.>.A a 5.@ @ W - 0 T n e @ i %.. X 1 }.@ j V # # 6.}.@ 7...@ @ @ @ @ @ - { @ @ @ e 8.@ ! ~ @  .& 0 m ' _ @ @ # $ @ @ 7 h @ @ 9.. + s @ 7...@ @ @ @ @ @ - + + + + +.j V # # 6.}.@ T 2 @ @ 9.. + s @ 7...@ @ @ @ @ @ @ + + + + ",
". . . . @ @ @ @ @ @ @ @ @ @ @ @ @ @ @ @ @ @ @ @ @ @ @ @ @ @ @ @ @ @ @ @ @ @ @ @ @ @ @ @ / a q @ @ @ @ @ @ @ @ @ @ @ @ @ @ @ @ @ @ @ @ @ 9 F @ @ @ @ @ @ @ @ @ @ @ @ @ @ / a q @ @ @ @ @ @ @ @ @ @ @ @ @ @ @ @ @ @ @ @ @ @ @ @ @ @ @ / a q @ @ @ @ @ @ @ + + + + ",
". . . . @ @ @ @ @ @ @ @ @ @ @ @ @ @ @ @ @ @ @ @ @ @ @ @ @ @ @ @ @ @ @ @ @ @ @ @ @ @ @ @ @ @ @ @ @ @ @ @ @ @ @ @ @ @ @ @ @ @ @ @ 0.a.b.c./.d.@ @ @ @ @ @ @ @ @ @ @ @ @ @ @ @ @ @ @ @ @ @ @ @ @ @ @ @ @ @ @ @ @ @ @ @ @ @ @ @ @ @ @ @ @ @ @ @ @ @ @ @ @ @ + + + + ",
". . . . @ @ @ @ @ @ @ @ @ @ @ @ @ @ @ @ @ @ @ @ @ @ @ @ @ @ @ @ @ @ @ @ @ @ @ @ @ @ @ @ @ @ @ @ @ @ @ @ @ @ @ @ @ @ @ @ @ @ @ @ 8 Q A e.f.@ @ @ @ @ @ @ @ @ @ @ @ @ @ @ @ @ @ @ @ @ @ @ @ @ @ @ @ @ @ @ @ @ @ @ @ @ @ @ @ @ @ @ @ @ @ @ @ @ @ @ @ @ @ @ + + + + ",
". . . . @ @ @ @ @ @ @ @ @ @ @ @ @ @ @ @ @ @ @ @ @ @ @ @ @ @ @ @ @ @ @ @ @ @ @ @ @ @ @ @ @ @ @ @ @ @ @ @ @ @ @ @ @ @ @ @ @ @ @ @ @ @ @ @ @ @ @ @ @ @ @ @ @ @ @ @ @ @ @ @ @ @ @ @ @ @ @ @ @ @ @ @ @ @ @ @ @ @ @ @ @ @ @ @ @ @ @ @ @ @ @ @ @ @ @ @ @ @ @ @ + + + + ",
". . . . @ @ @ @ @ @ @ @ @ @ @ @ @ @ @ @ @ @ @ @ @ @ @ @ @ @ @ @ @ @ @ @ @ @ @ @ @ @ @ @ @ @ @ @ @ @ @ @ @ @ @ @ @ @ @ @ @ @ @ @ @ @ @ @ @ @ @ @ @ @ @ @ @ @ @ @ @ @ @ @ @ @ @ @ @ @ @ @ @ @ @ @ @ @ @ @ @ @ @ @ @ @ @ @ @ @ @ @ @ @ @ @ @ @ @ @ @ @ @ @ + + + + ",
". . . . @ @ @ @ @ @ @ @ @ @ @ @ @ @ @ @ @ @ @ @ Z o @ @ @ @ @ @ Z o @ @ ! ~ @ @ @ @ @ @ @ @ @ @ @ @ @ @ @ @ @ @ @ @ ! ~ @ @ @ @ @ @ @ @ @ @ @ # $ @ @ @ @ @ @ @ @ @ @ @ @ @ @ @ @ @ @ @ @ @ @ @ @ @ @ @ @ @ @ @ @ @ @ @ @ @ Z o @ @ @ @ @ @ @ @ @ @ @ @ + + + + ",
". . . . @ @ @ - + % @ @ @ ; + > @ ! ~ @ @ @ @ @ Z o @ @ @ @ @ @ Z o @ @ ! ~ @ @ @ @ @ @ @ @ @ @ @ @ @ u K /.D r : @ ! ~ @ ! ~ @ @ @ @ @ @ @ @ # $ @ @ @ @ @ @ @ @ @ . ~ @ @ @ @ @ @ @ @ @ @ @ @ @ @ - + + + + 7.@ @ @ @ @ @ Z o @ @ ! ~ @ . ~ @ @ @ @ @ + + + + ",
". . . . @ @ @ - ( _ @ @ : < [ > @ @ @ @ @ @ @ @ Z o @ @ @ @ @ @ Z o @ @ ! ~ @ @ @ @ @ @ @ @ @ @ @ @ 0.0 S j ) g.^ @ ! ~ @ @ @ @ @ @ @ @ @ @ @ # $ @ @ @ @ @ @ @ @ @ . ~ @ @ @ @ @ @ @ @ @ @ @ @ @ @ - { @ @ @ @ @ @ @ @ @ @ Z o @ @ @ @ @ . ~ @ @ @ @ @ + + + + ",
". . . . @ @ @ - 3 4 5 @ 6 7 [ > @ ! ~ @ h.  0 m n o @ @ h.  0 m n o @ @ ! ~ @ j ' g ! k @ @ @ @ @ i X 2 @ @ @ @ @ @ ! ~ @ ! ~ @ R ' , 2.J @ @ # $ @ ,.].G @ @ @ @ r + + + s @ 8 9 0 a b @ @ @ @ @ @ - { @ @ @ @ @ @ h.  0 m n o @ @ ! ~ r + + + s @ @ @ + + + + ",
". . . . @ @ @ - u v w / . x [ > @ ! ~ / < _ N u * o @ / < _ N u * o @ @ ! ~ 5 ; ^ H I < J @ @ @ @ a.+ b.@ @ @ @ @ @ ! ~ @ ! ~ <.& | j i.] @ @ # $ j.. k.@ @ @ @ @ @ . ~ @ @ / ( 6 y z A B @ @ @ @ @ - { @ @ @ @ @ / < _ N u * o @ @ ! ~ @ . ~ @ @ @ @ @ + + + + ",
". . . . @ @ @ - u U V J t @ [ > @ ! ~ @., / @ @ 7.o @ @., / @ @ 7.o @ @ ! ~  .X / @ @ ..+.@ @ @ @ O A @ @ @ @ @ @ @ ! ~ @ ! ~ B 0 q @ @ @ @ @ # l.].B @ @ @ @ @ @ @ . ~ @ @ W X Y @ @ | Z @ @ @ @ @ - + + + + o @ @., / @ @ 7.o @ @ ! ~ @ . ~ @ @ @ @ @ + + + + ",
". . . . @ @ @ - u &.# 9 b @ [ > @ ! ~ '.).@ @ @ ^ o @ '.).@ @ @ ^ o @ @ ! ~ ;.+ * * + + >.@ @ @ @ a.+ b.@ @ @ @ @ @ ! ~ @ ! ~ ;.- @ @ @ @ @ @ # # ^ @ @ @ @ @ @ @ @ . ~ @ @ O - @ @ @ 7 p @ @ @ @ @ - { @ @ @ @ @ '.).@ @ @ ^ o @ @ ! ~ @ . ~ @ @ @ @ @ + + + + ",
". . . . @ @ @ - u @ | g q @ [ > @ ! ~ @., / @ @ 7.o @ @., / @ @ 7.o @ @ ! ~ B . 5 @ @ @ @ @ @ @ @ i X S @ @ @ @ @ @ ! ~ @ ! ~ B 0 q @ @ @ @ @ # j.( m.@ @ @ @ @ @ @ ].~ @ @ W X Y @ @ | Z @ @ @ @ @ - { @ @ @ @ @ @., / @ @ 7.o @ @ ! ~ @ ].~ @ @ @ @ @ + + + + ",
". . . . @ @ @ - u @ @ @ @ @ [ > @ ! ~ / < f N '.* o @ / < f N '.* o @ @ ! ~ <.K ] [.}.S ..@ @ @ @ @ 0.X c.) ) g.^ @ ! ~ @ ! ~ 5 & | j % ] @ @ # $ n.< o.@ @ @ @ @ @ & 3.5 @ / a 6 y ^./.(.@ @ @ @ @ - { @ @ @ @ @ / < f N '.* o @ @ ! ~ @ & 3.5 @ @ @ @ + + + + ",
". . . . @ @ @ - u @ @ @ @ @ [ > @ ! ~ @ $   0 m n o @ @ $   0 m n o @ @ ! ~ @ j V # # 6.}.@ @ @ @ @ @ u   /.# ' : @ ! ~ @ ! ~ @ d.1 g < J @ @ # $ @ x 2.p.@ @ @ @ @ 9.. + s @ 4.>.A a 5.@ @ @ @ @ @ - + + + + ).@ @ $   0 m n o @ @ ! ~ @ 9.. + s @ @ @ + + + + ",
". . . . @ @ @ @ @ @ @ @ @ @ @ @ @ @ @ @ @ @ @ @ @ @ @ @ @ @ @ @ @ @ @ @ @ @ @ @ @ @ @ @ @ @ @ @ @ @ @ @ @ @ @ @ @ @ @ @ @ @ @ @ @ @ @ @ @ @ @ @ @ @ @ @ @ @ @ @ @ @ @ @ @ @ @ @ @ @ @ @ @ @ @ @ @ @ @ @ @ @ @ @ @ @ @ @ @ @ @ @ @ @ @ @ @ @ @ @ @ @ @ @ + + + + ",
". . . . + + + + + + + + + + + + + + + + + + + + + + + + + + + + + + + + + + + + + + + + + + + + + + + + + + + + + + + + + + + + + + + + + + + + + + + + + + + + + + + + + + + + + + + + + + + + + + + + + + + + + + + + + + + + + + + + + + + + + + + + + + + + ",
". . . + + + + + + + + + + + + + + + + + + + + + + + + + + + + + + + + + + + + + + + + + + + + + + + + + + + + + + + + + + + + + + + + + + + + + + + + + + + + + + + + + + + + + + + + + + + + + + + + + + + + + + + + + + + + + + + + + + + + + + + + + + + + + ",
". . + + + + + + + + + + + + + + + + + + + + + + + + + + + + + + + + + + + + + + + + + + + + + + + + + + + + + + + + + + + + + + + + + + + + + + + + + + + + + + + + + + + + + + + + + + + + + + + + + + + + + + + + + + + + + + + + + + + + + + + + + + + + + + ",
". + + + + + + + + + + + + + + + + + + + + + + + + + + + + + + + + + + + + + + + + + + + + + + + + + + + + + + + + + + + + + + + + + + + + + + + + + + + + + + + + + + + + + + + + + + + + + + + + + + + + + + + + + + + + + + + + + + + + + + + + + + + + + + + "};
