/* XPM */
static char * pickups_xpm[] = {
"161 35 190 2",
"  	c None",
". 	c #E6E6E6",
"+ 	c #F3F3F3",
"@ 	c #FFFFFF",
"# 	c #000000",
"$ 	c #383838",
"% 	c #BCBCBC",
"& 	c #BBBBBB",
"* 	c #B1B1B1",
"= 	c #909090",
"- 	c #353535",
"; 	c #6E6E6E",
"> 	c #2A2A2A",
", 	c #818181",
"' 	c #B5B5B5",
") 	c #4F4F4F",
"! 	c #F7F7F7",
"~ 	c #A3A3A3",
"{ 	c #989898",
"] 	c #929292",
"^ 	c #1C1C1C",
"/ 	c #F9F9F9",
"( 	c #848484",
"_ 	c #B0B0B0",
": 	c #BFBFBF",
"< 	c #FBFBFB",
"[ 	c #F1F1F1",
"} 	c #E1E1E1",
"| 	c #F6F6F6",
"1 	c #C8C8C8",
"2 	c #BDBDBD",
"3 	c #E2E2E2",
"4 	c #A6A6A6",
"5 	c #898989",
"6 	c #969696",
"7 	c #F0F0F0",
"8 	c #626262",
"9 	c #686868",
"0 	c #3B3B3B",
"a 	c #696969",
"b 	c #454545",
"c 	c #585858",
"d 	c #6D6D6D",
"e 	c #5C5C5C",
"f 	c #0D0D0D",
"g 	c #8B8B8B",
"h 	c #ACACAC",
"i 	c #CFCFCF",
"j 	c #494949",
"k 	c #949494",
"l 	c #FAFAFA",
"m 	c #737373",
"n 	c #D7D7D7",
"o 	c #FDFDFD",
"p 	c #DDDDDD",
"q 	c #7D7D7D",
"r 	c #858585",
"s 	c #F8F8F8",
"t 	c #C0C0C0",
"u 	c #ADADAD",
"v 	c #797979",
"w 	c #6C6C6C",
"x 	c #424242",
"y 	c #D1D1D1",
"z 	c #767676",
"A 	c #404040",
"B 	c #C3C3C3",
"C 	c #F5F5F5",
"D 	c #CECECE",
"E 	c #5F5F5F",
"F 	c #A4A4A4",
"G 	c #636363",
"H 	c #282828",
"I 	c #FEFEFE",
"J 	c #A5A5A5",
"K 	c #666666",
"L 	c #EAEAEA",
"M 	c #B9B9B9",
"N 	c #8C8C8C",
"O 	c #C5C5C5",
"P 	c #4D4D4D",
"Q 	c #EEEEEE",
"R 	c #FCFCFC",
"S 	c #919191",
"T 	c #808080",
"U 	c #D2D2D2",
"V 	c #616161",
"W 	c #555555",
"X 	c #E8E8E8",
"Y 	c #E7E7E7",
"Z 	c #7F7F7F",
"` 	c #ECECEC",
" .	c #9C9C9C",
"..	c #EBEBEB",
"+.	c #F2F2F2",
"@.	c #656565",
"#.	c #E0E0E0",
"$.	c #525252",
"%.	c #E9E9E9",
"&.	c #999999",
"*.	c #434343",
"=.	c #B6B6B6",
"-.	c #A9A9A9",
";.	c #B7B7B7",
">.	c #DEDEDE",
",.	c #F4F4F4",
"'.	c #D5D5D5",
").	c #1F1F1F",
"!.	c #E3E3E3",
"~.	c #888888",
"{.	c #ABABAB",
"].	c #B8B8B8",
"^.	c #7C7C7C",
"/.	c #E4E4E4",
"(.	c #AAAAAA",
"_.	c #2C2C2C",
":.	c #D8D8D8",
"<.	c #161616",
"[.	c #CBCBCB",
"}.	c #5A5A5A",
"|.	c #9E9E9E",
"1.	c #CDCDCD",
"2.	c #717171",
"3.	c #DADADA",
"4.	c #979797",
"5.	c #B2B2B2",
"6.	c #8E8E8E",
"7.	c #B3B3B3",
"8.	c #3C3C3C",
"9.	c #C1C1C1",
"0.	c #777777",
"a.	c #C7C7C7",
"b.	c #9D9D9D",
"c.	c #C2C2C2",
"d.	c #606060",
"e.	c #5D5D5D",
"f.	c #EFEFEF",
"g.	c #E5E5E5",
"h.	c #878787",
"i.	c #323232",
"j.	c #B4B4B4",
"k.	c #AEAEAE",
"l.	c #3D3D3D",
"m.	c #A7A7A7",
"n.	c #A2A2A2",
"o.	c #565656",
"p.	c #D9D9D9",
"q.	c #707070",
"r.	c #9A9A9A",
"s.	c #BABABA",
"t.	c #BEBEBE",
"u.	c #828282",
"v.	c #7A7A7A",
"w.	c #959595",
"x.	c #8D8D8D",
"y.	c #191919",
"z.	c #DBDBDB",
"A.	c #545454",
"B.	c #414141",
"C.	c #2E2E2E",
"D.	c #CCCCCC",
"E.	c #595959",
"F.	c #C6C6C6",
"G.	c #C4C4C4",
"H.	c #757575",
"I.	c #8F8F8F",
"J.	c #D6D6D6",
"K.	c #868686",
"L.	c #474747",
"M.	c #DFDFDF",
"N.	c #727272",
"O.	c #4C4C4C",
"P.	c #D3D3D3",
"Q.	c #121212",
"R.	c #262626",
"S.	c #222222",
"T.	c #7E7E7E",
"U.	c #EDEDED",
"V.	c #A1A1A1",
"W.	c #060606",
"X.	c #363636",
"Y.	c #D0D0D0",
"Z.	c #9F9F9F",
"`.	c #333333",
" +	c #8A8A8A",
".+	c #787878",
"++	c #3F3F3F",
"@+	c #838383",
"#+	c #4A4A4A",
"$+	c #4E4E4E",
". . . . . . . . . . . . . . . . . . . . . . . . . . . . . . . . . . . . . . . . . . . . . . . . . . . . . . . . . . . . . . . . . . . . . . . . . . . . . . . . . . . . . . . . . . . . . . . . . . . . . . . . . . . . . . . . . . . . . . . . . . . . . . . . . . . . . . . . . . . . . . . . . . . . . . . . . . . . . . . . . ",
"+ . . . . . . . . . . . . . . . . . . . . . . . . . . . . . . . . . . . . . . . . . . . . . . . . . . . . . . . . . . . . . . . . . . . . . . . . . . . . . . . . . . . . . . . . . . . . . . . . . . . . . . . . . . . . . . . . . . . . . . . . . . . . . . . . . . . . . . . . . . . . . . . . . . . . . . . . . . . . . . . @ ",
"+ + . . . . . . . . . . . . . . . . . . . . . . . . . . . . . . . . . . . . . . . . . . . . . . . . . . . . . . . . . . . . . . . . . . . . . . . . . . . . . . . . . . . . . . . . . . . . . . . . . . . . . . . . . . . . . . . . . . . . . . . . . . . . . . . . . . . . . . . . . . . . . . . . . . . . . . . . . . . . . @ @ ",
"+ + + . . . . . . . . . . . . . . . . . . . . . . . . . . . . . . . . . . . . . . . . . . . . . . . . . . . . . . . . . . . . . . . . . . . . . . . . . . . . . . . . . . . . . . . . . . . . . . . . . . . . . . . . . . . . . . . . . . . . . . . . . . . . . . . . . . . . . . . . . . . . . . . . . . . . . . . . . . . @ @ @ ",
"+ + + + # # # # # # # # # # # # # # # # # # # # # # # # # # # # # # # # # # # # # # # # # # # # # # # # # # # # # # # # # # # # # # # # # # # # # # # # # # # # # # # # # # # # # # # # # # # # # # # # # # # # # # # # # # # # # # # # # # # # # # # # # # # # # # # # # # # # # # # # # # # # # # # # # # # # # # # # # @ @ @ @ ",
"+ + + + # # # # # # # # # # # # # # # # # # # # # # # # # # # # # # # # # # # # # # # # # # # # # # # # # # # # # # # # # # # # # # # # # # # # # # # # # # # # # # # # # # # # # # # # # # # # # # # # # # # # # # # # # # # # # # # # # # # # # # # # # # # # # # # # # # # # # # # # # # # # # # # # # # # # # # # # # @ @ @ @ ",
"+ + + + # $ % % % % % % % & * = - # # # # ; % % % > # # # # # # # # # # # # # # # , % % ' # # # # # # # # # # # # # # # # # # # # # # # # # # # # # # # # # # # # # # # # # # # # # # # # # # # # # # # # # # # # # # # # # # # # # # # # # # # # # # # # # # # # # # # # # # # # # # # # # # # # # # # # # # # # # # # # @ @ @ @ ",
"+ + + + # ) @ @ @ @ @ @ @ @ @ @ ! ~ # # # { @ @ @ ] ^ # # # # # # # # # # # # # # * @ @ / ( # # # # # # # # # # # # # # # # # # # # # # # # # # # # # # # # # # # # # # # # # # # # # # # # # # # # # # # # # # # # # # # # # # # # # # # # # # # # # # # # # # # # # # # # # # # # # # # # # # # # # # # # # # # # # # # @ @ @ @ ",
"+ + + + # ) @ @ @ @ @ @ @ @ @ @ @ @ _ # # { @ @ @ : > # # # # # # # # # # # # # # * @ @ < ' # # # # # # # # # # # # # # # # # # # # # # # # # # # # # # # # # # # # # # # # # # # # # # # # # # # # # # # # # # # # # # # # # # # # # # # # # # # # # # # # # # # # # # # # # # # # # # # # # # # # # # # # # # # # # # # @ @ @ @ ",
"+ + + + # ) @ @ @ [ } } } . ! @ @ @ | ; # ; 1 } } 2 > # # # # # # # # # # # # # # * @ @ < ' # # # # # # # # # # # # # # # # # # # # # # # # # # # # # # # # # # # # # # # # # # # # # # # # # # # # # # # # # # # # # # # # # # # # # # # # # # # # # # # # # # # # # # # # # # # # # # # # # # # # # # # # # # # # # # # @ @ @ @ ",
"+ + + + # ) @ @ @ 3 4 5 5 5 6 7 @ @ @ % # # ) 5 5 5 ^ # # # # # > 8 9 - # # # # # * @ @ < ' # # # # # # # # # # # # # # # # # # # # # # # # # # # # # # 0 a b # # # # # # # # # # c d e f # # # # # # # # # # # # # # # # # # # # # # # # # # # # # # # # # # # # # # # # # # # # # # # # # # # # # # # # # # # # # # # # @ @ @ @ ",
"+ + + + # ) @ @ @ 3 g # # # # h @ @ @ i j k l l l 0 # # # # m n < @ @ o p q # # # * @ @ < ' # # r s l l t # # u l l [ # # # # v l l l w # # u l l [ x y o @ @ } z # # # # # A B C @ @ @ / D E # # # # # # # # # # # # # # # # # # # # # # # # # # # # # # # # # # # # # # # # # # # # # # # # # # # # # # # # # # # # # # @ @ @ @ ",
"+ + + + # ) @ @ @ 3 g # # # # F @ @ @ D G { @ @ @ % H # # = < @ @ @ @ @ @ I J # # * @ @ < ' # K | @ @ L M N # * @ @ < * # # # q @ @ @ O P # * @ @ < Q @ @ @ @ @ R S # # # A L @ @ @ @ @ @ @ / T # # # # # # # # # # # # # # # # # # # # # # # # # # # # # # # # # # # # # # # # # # # # # # # # # # # # # # # # # # # # # @ @ @ @ ",
"+ + + + # ) @ @ @ 3 g # # # # U @ @ @ O V { @ @ @ : > # W ! @ @ R X Y < @ @ < Z # * @ @ < ' b ` @ @ 7 2  .f # * @ @ < ' # # # q @ @ @ 1 ) # * @ @ @ @ l ..+.@ @ @ ! @.# # & @ @ @ L #.X R @ @ 7 $.# # # # # # # # # # # # # # # # # # # # # # # # # # # # # # # # # # # # # # # # # # # # # # # # # # # # # # # # # # # # @ @ @ @ ",
"+ + + + # ) @ @ @ %._ r r &.i @ @ @ C % *.{ @ @ @ : > # & @ @ o 1 =.6 -.o @ @ n - * @ @ < ;.>.@ @ ,.t F ^ # # * @ @ < ' # # # q @ @ @ 1 ) # * @ @ @ ! B '  .'.@ @ @ y ).# !.@ @ %.& &.~.: @ @ @ {.# # # # # # # # # # # # # # # # # # # # # # # # # # # # # # # # # # # # # # # # # # # # # # # # # # # # # # # # # # # # @ @ @ @ ",
"+ + + + # ) @ @ @ @ @ @ @ @ @ @ @ @ '.u # { @ @ @ : > # . @ @ X ].P # # U / / !.^.* @ @ < /.@ @ s B (._.# # # * @ @ < ' # # # q @ @ @ 1 ) # * @ @ @ :._ 0 # <.+ @ @ ` z # Y @ @ l [.}.# > |.1.1.2 _.# # # # # # # # # # # # # # # # # # # # # # # # # # # # # # # # # # # # # # # # # # # # # # # # # # # # # # # # # # # @ @ @ @ ",
"+ + + + # ) @ @ @ @ @ @ @ @ @ @ @ #.% 2.# { @ @ @ : > # < @ @ 3.6 # # # # 4.5.5.6.* @ @ @ @ @ @ ! 7.8.# # # # * @ @ < ' # # # q @ @ @ 1 ) # * @ @ @ 9.0.# # # a.@ @ | b.# c.@ @ @ @ @ L t ~.d.e.e.).# # # # # # # # # # # # # # # # # # # # # # # # # # # # # # # # # # # # # # # # # # # # # # # # # # # # # # # # # # # @ @ @ @ ",
"+ + + + # ) @ @ @ / +.+.+.+.f.g.[.& h.# # { @ @ @ : > > @ @ @ '.^.# # # # # # # # * @ @ @ @ @ @ @ 3.).# # # # * @ @ < ' # # # q @ @ @ 1 ) # * @ @ o % i.# # # j.@ @ l k.# l.g.@ @ @ @ @ @ @ [ N # # # # # # # # # # # # # # # # # # # # # # # # # # # # # # # # # # # # # # # # # # # # # # # # # # # # # # # # # # # # # @ @ @ @ ",
"+ + + + # ) @ @ @ 3 5.m.m.m.m.n.S o.# # # { @ @ @ : > <.@ @ @ p.q.# # # # # # # # * @ @ @ l Q @ @ o r.# # # # * @ @ < ' # # # q @ @ @ 1 ) # * @ @ @ s.# # # # t.@ @ / j.# # > =.#.,.@ @ @ @ @ o u.# # # # # # # # # # # # # # # # # # # # # # # # # # # # # # # # # # # # # # # # # # # # # # # # # # # # # # # # # # # # @ @ @ @ ",
"+ + + + # ) @ @ @ 3 g # # # # # # # # # # { @ @ @ : > # + @ @ !.v.# # # 6 M M w.# * @ @ I [.: o @ @ L x # # # * @ @ R ' # # # x.@ @ @ 1 ) # * @ @ @ [.y.# # # z.@ @ [ 5.# # # # A.~.=.z.+ @ @ @ p.B.# # # # # # # # # # # # # # # # # # # # # # # # # # # # # # # # # # # # # # # # # # # # # # # # # # # # # # # # # # # @ @ @ @ ",
"+ + + + # ) @ @ @ 3 g # # # # # # # # # # { @ @ @ : > # '.@ @ l k # # C.+.@ @ D.w * @ @ < s.E.F.@ @ @ s.# # # {.@ @ @ G.# # # D @ @ @ 1 ) # * @ @ @ ..E.# # 0.@ @ @ #.J H.!.!.!.e.# # *.u.R @ @ >.q # # # # # # # # # # # # # # # # # # # # # # # # # # # # # # # # # # # # # # # # # # # # # # # # # # # # # # # # # # # @ @ @ @ ",
"+ + + + # ) @ @ @ 3 g # # # # # # # # # # { @ @ @ : > # I.@ @ @ Q g u.J.@ @ I a.K.* @ @ < ' # L./ @ @ ,.K # # N @ @ @ | _ ~ J.@ @ @ @ 1 ) # * @ @ @ @ M.6.m.+ @ @ o G.5 P o @ @ ` x.E N.& @ @ @ i r # # # # # # # # # # # # # # # # # # # # # # # # # # # # # # # # # # # # # # # # # # # # # # # # # # # # # # # # # # # @ @ @ @ ",
"+ + + + # ) @ @ @ 3 g # # # # # # # # # # { @ @ @ : > # # p.@ @ @ @ @ @ @ @ 3 & O.* @ @ < ' # # ;.@ @ @ P.Q.# R.+.@ @ @ @ @ @ | @ @ @ 1 ) # * @ @ o < @ @ @ @ @ @ p M x # 1.@ @ @ @ @ @ @ @ @ 7 % G # # # # # # # # # # # # # # # # # # # # # # # # # # # # # # # # # # # # # # # # # # # # # # # # # # # # # # # # # # # @ @ @ @ ",
"+ + + + # ) @ @ @ 3 g # # # # # # # # # # { @ @ @ : > # # S.3.I @ @ @ @ o #.% N # * @ @ < ' # # C.C @ @ < x.# # T./ @ @ @ @ [ y @ @ @ 1 ) # * @ @ < i R @ @ @ I #.% u.# # S.:.I @ @ @ @ @ @ U.9.~ # # # # # # # # # # # # # # # # # # # # # # # # # # # # # # # # # # # # # # # # # # # # # # # # # # # # # # # # # # # # @ @ @ @ ",
"+ + + + # # $ % % % g # # # # # # # # # # # ; % % % > # # # <.V.:.} 3 :.B M ~.W.# # , % % ' # # # ).* % % ' X.# # a P.3 #.Y.% J 9 % % % ) # * @ @ < ' u.z./.>.a.& ~.# # # # <.r.P.M.!.} 3.1 % Z.`.# # # # # # # # # # # # # # # # # # # # # # # # # # # # # # # # # # # # # # # # # # # # # # # # # # # # # # # # # # # # @ @ @ @ ",
"+ + + + # # # # # # # # # # # # # # # # # # # # # # # # # # # # B.v  +g .+8.# # # # # # # # # # # # # # # # # # # # > z g h.@.W.# # # # # # * @ @ < ' # ++, I.@+#+# # # # # # # `.q.K.x. +^.$+# # # # # # # # # # # # # # # # # # # # # # # # # # # # # # # # # # # # # # # # # # # # # # # # # # # # # # # # # # # # # # @ @ @ @ ",
"+ + + + # # # # # # # # # # # # # # # # # # # # # # # # # # # # # # # # # # # # # # # # # # # # # # # # # # # # # # # # # # # # # # # # # # * @ @ < ' # # # # # # # # # # # # # # # # # # # # # # # # # # # # # # # # # # # # # # # # # # # # # # # # # # # # # # # # # # # # # # # # # # # # # # # # # # # # # # # # # # @ @ @ @ ",
"+ + + + # # # # # # # # # # # # # # # # # # # # # # # # # # # # # # # # # # # # # # # # # # # # # # # # # # # # # # # # # # # # # # # # # # * @ @ < ' # # # # # # # # # # # # # # # # # # # # # # # # # # # # # # # # # # # # # # # # # # # # # # # # # # # # # # # # # # # # # # # # # # # # # # # # # # # # # # # # # # @ @ @ @ ",
"+ + + + # # # # # # # # # # # # # # # # # # # # # # # # # # # # # # # # # # # # # # # # # # # # # # # # # # # # # # # # # # # # # # # # # # * @ @ < ' # # # # # # # # # # # # # # # # # # # # # # # # # # # # # # # # # # # # # # # # # # # # # # # # # # # # # # # # # # # # # # # # # # # # # # # # # # # # # # # # # # @ @ @ @ ",
"+ + + + # # # # # # # # # # # # # # # # # # # # # # # # # # # # # # # # # # # # # # # # # # # # # # # # # # # # # # # # # # # # # # # # # # }.(.D 1.' # # # # # # # # # # # # # # # # # # # # # # # # # # # # # # # # # # # # # # # # # # # # # # # # # # # # # # # # # # # # # # # # # # # # # # # # # # # # # # # # # # @ @ @ @ ",
"+ + + + # # # # # # # # # # # # # # # # # # # # # # # # # # # # # # # # # # # # # # # # # # # # # # # # # # # # # # # # # # # # # # # # # # # A d.d.e # # # # # # # # # # # # # # # # # # # # # # # # # # # # # # # # # # # # # # # # # # # # # # # # # # # # # # # # # # # # # # # # # # # # # # # # # # # # # # # # # # @ @ @ @ ",
"+ + + + @ @ @ @ @ @ @ @ @ @ @ @ @ @ @ @ @ @ @ @ @ @ @ @ @ @ @ @ @ @ @ @ @ @ @ @ @ @ @ @ @ @ @ @ @ @ @ @ @ @ @ @ @ @ @ @ @ @ @ @ @ @ @ @ @ @ @ @ @ @ @ @ @ @ @ @ @ @ @ @ @ @ @ @ @ @ @ @ @ @ @ @ @ @ @ @ @ @ @ @ @ @ @ @ @ @ @ @ @ @ @ @ @ @ @ @ @ @ @ @ @ @ @ @ @ @ @ @ @ @ @ @ @ @ @ @ @ @ @ @ @ @ @ @ @ @ @ @ @ @ @ @ @ @ @ @ @ ",
"+ + + @ @ @ @ @ @ @ @ @ @ @ @ @ @ @ @ @ @ @ @ @ @ @ @ @ @ @ @ @ @ @ @ @ @ @ @ @ @ @ @ @ @ @ @ @ @ @ @ @ @ @ @ @ @ @ @ @ @ @ @ @ @ @ @ @ @ @ @ @ @ @ @ @ @ @ @ @ @ @ @ @ @ @ @ @ @ @ @ @ @ @ @ @ @ @ @ @ @ @ @ @ @ @ @ @ @ @ @ @ @ @ @ @ @ @ @ @ @ @ @ @ @ @ @ @ @ @ @ @ @ @ @ @ @ @ @ @ @ @ @ @ @ @ @ @ @ @ @ @ @ @ @ @ @ @ @ @ @ ",
"+ + @ @ @ @ @ @ @ @ @ @ @ @ @ @ @ @ @ @ @ @ @ @ @ @ @ @ @ @ @ @ @ @ @ @ @ @ @ @ @ @ @ @ @ @ @ @ @ @ @ @ @ @ @ @ @ @ @ @ @ @ @ @ @ @ @ @ @ @ @ @ @ @ @ @ @ @ @ @ @ @ @ @ @ @ @ @ @ @ @ @ @ @ @ @ @ @ @ @ @ @ @ @ @ @ @ @ @ @ @ @ @ @ @ @ @ @ @ @ @ @ @ @ @ @ @ @ @ @ @ @ @ @ @ @ @ @ @ @ @ @ @ @ @ @ @ @ @ @ @ @ @ @ @ @ @ @ @ @ @ ",
"+ @ @ @ @ @ @ @ @ @ @ @ @ @ @ @ @ @ @ @ @ @ @ @ @ @ @ @ @ @ @ @ @ @ @ @ @ @ @ @ @ @ @ @ @ @ @ @ @ @ @ @ @ @ @ @ @ @ @ @ @ @ @ @ @ @ @ @ @ @ @ @ @ @ @ @ @ @ @ @ @ @ @ @ @ @ @ @ @ @ @ @ @ @ @ @ @ @ @ @ @ @ @ @ @ @ @ @ @ @ @ @ @ @ @ @ @ @ @ @ @ @ @ @ @ @ @ @ @ @ @ @ @ @ @ @ @ @ @ @ @ @ @ @ @ @ @ @ @ @ @ @ @ @ @ @ @ @ @ @ @ "};
