/* XPM */
static char * planting_xpm[] = {
"161 35 173 2",
"  	c None",
". 	c #E6E6E6",
"+ 	c #F3F3F3",
"@ 	c #FFFFFF",
"# 	c #000000",
"$ 	c #383838",
"% 	c #BCBCBC",
"& 	c #BBBBBB",
"* 	c #B1B1B1",
"= 	c #909090",
"- 	c #353535",
"; 	c #818181",
"> 	c #B5B5B5",
", 	c #6E6E6E",
"' 	c #2A2A2A",
") 	c #4F4F4F",
"! 	c #F7F7F7",
"~ 	c #A3A3A3",
"{ 	c #F9F9F9",
"] 	c #848484",
"^ 	c #6A6A6A",
"/ 	c #737373",
"( 	c #535353",
"_ 	c #989898",
": 	c #929292",
"< 	c #1C1C1C",
"[ 	c #B0B0B0",
"} 	c #FBFBFB",
"| 	c #EDEDED",
"1 	c #C5C5C5",
"2 	c #3B3B3B",
"3 	c #BFBFBF",
"4 	c #F1F1F1",
"5 	c #E1E1E1",
"6 	c #F6F6F6",
"7 	c #E2E2E2",
"8 	c #8B8B8B",
"9 	c #C8C8C8",
"0 	c #BDBDBD",
"a 	c #A6A6A6",
"b 	c #898989",
"c 	c #969696",
"d 	c #F0F0F0",
"e 	c #4D4D4D",
"f 	c #6C6C6C",
"g 	c #666666",
"h 	c #656565",
"i 	c #5F5F5F",
"j 	c #4B4B4B",
"k 	c #262626",
"l 	c #ACACAC",
"m 	c #CFCFCF",
"n 	c #494949",
"o 	c #B7B7B7",
"p 	c #FEFEFE",
"q 	c #9A9A9A",
"r 	c #ADADAD",
"s 	c #FAFAFA",
"t 	c #F4F4F4",
"u 	c #A9A9A9",
"v 	c #A0A0A0",
"w 	c #DBDBDB",
"x 	c #E5E5E5",
"y 	c #8F8F8F",
"z 	c #949494",
"A 	c #7A7A7A",
"B 	c #E3E3E3",
"C 	c #F8F8F8",
"D 	c #454545",
"E 	c #606060",
"F 	c #A4A4A4",
"G 	c #CECECE",
"H 	c #636363",
"I 	c #0D0D0D",
"J 	c #B9B9B9",
"K 	c #CCCCCC",
"L 	c #686868",
"M 	c #282828",
"N 	c #868686",
"O 	c #D6D6D6",
"P 	c #C3C3C3",
"Q 	c #D2D2D2",
"R 	c #616161",
"S 	c #9B9B9B",
"T 	c #F2F2F2",
"U 	c #E8E8E8",
"V 	c #797979",
"W 	c #EFEFEF",
"X 	c #787878",
"Y 	c #8D8D8D",
"Z 	c #D3D3D3",
"` 	c #3D3D3D",
" .	c #FDFDFD",
"..	c #C6C6C6",
"+.	c #474747",
"@.	c #E9E9E9",
"#.	c #858585",
"$.	c #999999",
"%.	c #F5F5F5",
"&.	c #434343",
"*.	c #D0D0D0",
"=.	c #A7A7A7",
"-.	c #919191",
";.	c #B8B8B8",
">.	c #B3B3B3",
",.	c #E7E7E7",
"'.	c #5B5B5B",
").	c #D4D4D4",
"!.	c #B6B6B6",
"~.	c #FCFCFC",
"{.	c #D5D5D5",
"].	c #838383",
"^.	c #C0C0C0",
"/.	c #303030",
"(.	c #C1C1C1",
"_.	c #707070",
":.	c #C7C7C7",
"<.	c #E0E0E0",
"[.	c #717171",
"}.	c #7C7C7C",
"|.	c #C9C9C9",
"1.	c #323232",
"2.	c #7D7D7D",
"3.	c #4E4E4E",
"4.	c #DEDEDE",
"5.	c #A5A5A5",
"6.	c #767676",
"7.	c #CBCBCB",
"8.	c #878787",
"9.	c #161616",
"0.	c #BABABA",
"a.	c #B2B2B2",
"b.	c #A2A2A2",
"c.	c #565656",
"d.	c #DDDDDD",
"e.	c #CDCDCD",
"f.	c #DADADA",
"g.	c #747474",
"h.	c #5D5D5D",
"i.	c #E4E4E4",
"j.	c #7B7B7B",
"k.	c #979797",
"l.	c #222222",
"m.	c #D8D8D8",
"n.	c #8E8E8E",
"o.	c #CACACA",
"p.	c #D7D7D7",
"q.	c #9F9F9F",
"r.	c #ABABAB",
"s.	c #C2C2C2",
"t.	c #EBEBEB",
"u.	c #959595",
"v.	c #DFDFDF",
"w.	c #515151",
"x.	c #5C5C5C",
"y.	c #808080",
"z.	c #D9D9D9",
"A.	c #5A5A5A",
"B.	c #C4C4C4",
"C.	c #191919",
"D.	c #626262",
"E.	c #424242",
"F.	c #7F7F7F",
"G.	c #8C8C8C",
"H.	c #777777",
"I.	c #9C9C9C",
"J.	c #676767",
"K.	c #414141",
"L.	c #939393",
"M.	c #B4B4B4",
"N.	c #333333",
"O.	c #060606",
"P.	c #484848",
". . . . . . . . . . . . . . . . . . . . . . . . . . . . . . . . . . . . . . . . . . . . . . . . . . . . . . . . . . . . . . . . . . . . . . . . . . . . . . . . . . . . . . . . . . . . . . . . . . . . . . . . . . . . . . . . . . . . . . . . . . . . . . . . . . . . . . . . . . . . . . . . . . . . . . . . . . . . . . . . . ",
"+ . . . . . . . . . . . . . . . . . . . . . . . . . . . . . . . . . . . . . . . . . . . . . . . . . . . . . . . . . . . . . . . . . . . . . . . . . . . . . . . . . . . . . . . . . . . . . . . . . . . . . . . . . . . . . . . . . . . . . . . . . . . . . . . . . . . . . . . . . . . . . . . . . . . . . . . . . . . . . . . @ ",
"+ + . . . . . . . . . . . . . . . . . . . . . . . . . . . . . . . . . . . . . . . . . . . . . . . . . . . . . . . . . . . . . . . . . . . . . . . . . . . . . . . . . . . . . . . . . . . . . . . . . . . . . . . . . . . . . . . . . . . . . . . . . . . . . . . . . . . . . . . . . . . . . . . . . . . . . . . . . . . . . @ @ ",
"+ + + . . . . . . . . . . . . . . . . . . . . . . . . . . . . . . . . . . . . . . . . . . . . . . . . . . . . . . . . . . . . . . . . . . . . . . . . . . . . . . . . . . . . . . . . . . . . . . . . . . . . . . . . . . . . . . . . . . . . . . . . . . . . . . . . . . . . . . . . . . . . . . . . . . . . . . . . . . . @ @ @ ",
"+ + + + # # # # # # # # # # # # # # # # # # # # # # # # # # # # # # # # # # # # # # # # # # # # # # # # # # # # # # # # # # # # # # # # # # # # # # # # # # # # # # # # # # # # # # # # # # # # # # # # # # # # # # # # # # # # # # # # # # # # # # # # # # # # # # # # # # # # # # # # # # # # # # # # # # # # # # # # # @ @ @ @ ",
"+ + + + # # # # # # # # # # # # # # # # # # # # # # # # # # # # # # # # # # # # # # # # # # # # # # # # # # # # # # # # # # # # # # # # # # # # # # # # # # # # # # # # # # # # # # # # # # # # # # # # # # # # # # # # # # # # # # # # # # # # # # # # # # # # # # # # # # # # # # # # # # # # # # # # # # # # # # # # # @ @ @ @ ",
"+ + + + # $ % % % % % % % & * = - # # # # ; % % > # # # # # # # # # # # # # # # # # # # # # # # # # # # # # # # # # # # # # # # , % % % ' # # # # # # # # # # # # # # # # # # # # # # # # # # # # # # # # # # # # # # # # # # # # # # # # # # # # # # # # # # # # # # # # # # # # # # # # # # # # # # # # # # # # # # # # @ @ @ @ ",
"+ + + + # ) @ @ @ @ @ @ @ @ @ @ ! ~ # # # * @ @ { ] # # # # # # # # # # # # # # # # # # # # # # # # # # # # # # # ^ / / ( # # # _ @ @ @ : < # # # # # # # # # # # # # # # # # # # # # # # # # # # # # # # # # # # # # # # # # # # # # # # # # # # # # # # # # # # # # # # # # # # # # # # # # # # # # # # # # # # # # # # @ @ @ @ ",
"+ + + + # ) @ @ @ @ @ @ @ @ @ @ @ @ [ # # * @ @ } > # # # # # # # # # # # # # # # # # # # # # # # # # # # # # # # | @ @ 1 2 # # _ @ @ @ 3 ' # # # # # # # # # # # # # # # # # # # # # # # # # # # # # # # # # # # # # # # # # # # # # # # # # # # # # # # # # # # # # # # # # # # # # # # # # # # # # # # # # # # # # # # @ @ @ @ ",
"+ + + + # ) @ @ @ 4 5 5 5 . ! @ @ @ 6 , # * @ @ } > # # # # # # # # # # # # # # # # # # # # # # # # # # # # # # # | @ @ 7 8 # # , 9 5 5 0 ' # # # # # # # # # # # # # # # # # # # # # # # # # # # # # # # # # # # # # # # # # # # # # # # # # # # # # # # # # # # # # # # # # # # # # # # # # # # # # # # # # # # # # # # @ @ @ @ ",
"+ + + + # ) @ @ @ 7 a b b b c d @ @ @ % # * @ @ } > # # # # # e f g - # # # # # # # # # # # # ' h i # # # # # # # | @ @ 7 8 # # # ) b b b < # # # # # # # ' h i # # # # # # # # # # j g k # # # # # # # # # # # # # # # # # # # # # # # # # # # # # # # # # # # # # # # # # # # # # # # # # # # # # # # # # # # # # # # # @ @ @ @ ",
"+ + + + # ) @ @ @ 7 8 # # # # l @ @ @ m n * @ @ } > # # ' o d @ @ @ p . q # # # # r s s 4 - 1 { @ @ t u # # # v w s @ @ ! x y # z s s s 2 # # r s s 4 - 1 { @ @ t u # # # # # # A B @ @ C > D s s s E # # # # # # # # # # # # # # # # # # # # # # # # # # # # # # # # # # # # # # # # # # # # # # # # # # # # # # # # # # @ @ @ @ ",
"+ + + + # ) @ @ @ 7 8 # # # # F @ @ @ G H * @ @ } > # I w @ @ @ @ @ @ @ @ J # # # * @ @ } | @ @ @ @ @ @ % # # % @ @ @ @ @ @ K L _ @ @ @ % M # * @ @ } | @ @ @ @ @ @ % # # # # N } @ @ @ @ @ O @ @ @ P D # # # # # # # # # # # # # # # # # # # # # # # # # # # # # # # # # # # # # # # # # # # # # # # # # # # # # # # # # @ @ @ @ ",
"+ + + + # ) @ @ @ 7 8 # # # # Q @ @ @ 1 R * @ @ } > # S @ @ @ T x U } @ @ { V # # * @ @ @ @ C W ! @ @ @ C X # Y Z } @ @ T B K A _ @ @ @ 3 ' # * @ @ @ @ C W ! @ @ @ C X # # ` T @ @ @ W |  .@ @ @ @ ..+.# # # # # # # # # # # # # # # # # # # # # # # # # # # # # # # # # # # # # # # # # # # # # # # # # # # # # # # # # @ @ @ @ ",
"+ + + + # ) @ @ @ @.[ #.#.$.m @ @ @ %.% &.* @ @ } > # *.@ @ d % =.-.% @ @ @ ;.# # * @ @ @ @.0 >.F ,.@ @ @ J # # g T @ @ 7 =.Y '._ @ @ @ 3 ' # * @ @ @ @.0 >.F ,.@ @ @ J # # [ @ @ @ ).& ~ !.~.@ @ @ ..+.# # # # # # # # # # # # # # # # # # # # # # # # # # # # # # # # # # # # # # # # # # # # # # # # # # # # # # # # # @ @ @ @ ",
"+ + + + # ) @ @ @ @ @ @ @ @ @ @ @ @ {.r # * @ @ } > # ].^.).9 F # # J @ @ @ P /.# * @ @ @ (._ < # = @ @ @ 9 2 # # | @ @ 7 8 # # _ @ @ @ 3 ' # * @ @ @ (._ < # = @ @ @ 9 2 # 7 @ @ 4 % _.# # :.@ @ @ ..+.# # # # # # # # # # # # # # # # # # # # # # # # # # # # # # # # # # # # # # # # # # # # # # # # # # # # # # # # # @ @ @ @ ",
"+ + + + # ) @ @ @ @ @ @ @ @ @ @ @ <.% [.# * @ @ } > # # i }.* |.w + @ @ @ @ P ` # * @ @ } & 1.# # 2.@ @ @ 9 3.# # | @ @ 7 8 # # _ @ @ @ 3 ' # * @ @ } & 1.# # 2.@ @ @ 9 3.# s @ @ 4.5.# # # 6.@ @ @ ..+.# # # # # # # # # # # # # # # # # # # # # # # # # # # # # # # # # # # # # # # # # # # # # # # # # # # # # # # # # @ @ @ @ ",
"+ + + + # ) @ @ @ { T T T T W x 7.& 8.# # * @ @ } > # 9.0.~.@ @ @ @ p @ @ @ P ` # * @ @ } > # # # 2.@ @ @ 9 ) # # | @ @ 7 8 # # _ @ @ @ 3 ' # * @ @ } > # # # 2.@ @ @ 9 ) ' @ @ @ O ] # # # D @ @ @ ..+.# # # # # # # # # # # # # # # # # # # # # # # # # # # # # # # # # # # # # # # # # # # # # # # # # # # # # # # # # @ @ @ @ ",
"+ + + + # ) @ @ @ 7 a.=.=.=.=.b.-.c.# # # * @ @ } > # * @ @ @ d d.m e.@ @ @ P ` # * @ @ } > # # # 2.@ @ @ 9 ) # # | @ @ 7 8 # # _ @ @ @ 3 ' # * @ @ } > # # # 2.@ @ @ 9 ) 9.@ @ @ f.g.# # # h.@ @ @ ..+.# # # # # # # # # # # # # # # # # # # # # # # # # # # # # # # # # # # # # # # # # # # # # # # # # # # # # # # # # @ @ @ @ ",
"+ + + + # ) @ @ @ 7 8 # # # # # # # # # # * @ @ } > # W @ @ i.% ~ ].5.@ @ @ P ` # * @ @ } > # # # 2.@ @ @ 9 ) # # | @ @ 7 8 # # _ @ @ @ 3 ' # * @ @ } > # # # 2.@ @ @ 9 ) # t @ @ . j.# # # k.@ @ @ ..+.# # # # # # # # # # # # # # # # # # # # # # # # # # # # # # # # # # # # # # # # # # # # # # # # # # # # # # # # # @ @ @ @ ",
"+ + + + # ) @ @ @ 7 8 # # # # # # # # # # * @ @ } > l.p @ @ m.n.# # o.@ @ @ P ` # * @ @ } > # # # 2.@ @ @ 9 ) # # | @ @ 7 8 # # _ @ @ @ 3 ' # * @ @ } > # # # 2.@ @ @ 9 ) # p.@ @ ~.q.# # l.. @ @ @ ..+.# # # # # # # # # # # # # # # # # # # # # # # # # # # # # # # # # # # # # # # # # # # # # # # # # # # # # # # # # @ @ @ @ ",
"+ + + + # ) @ @ @ 7 8 # # # # # # # # # # * @ @ } > # s @ @ 6 r.; s.p @ @ @ P ` # * @ @ } > # # # 2.@ @ @ 9 ) # # t.@ @ | n.l.# _ @ @ @ 3 ' # * @ @ } > # # # 2.@ @ @ 9 ) # u.@ @ @ t b.$.v.@ @ @ @ ..+.# # # # # # # # # # # # # # # # # # # # # # # # # # # # # # # # # # # # # # # # # # # # # # # # # # # # # # # # # @ @ @ @ ",
"+ + + + # ) @ @ @ 7 8 # # # # # # # # # # * @ @ } > # Q @ @ @ @ @ @ s @ @ @ K ` # * @ @ } > # # # 2.@ @ @ 9 ) # # m.@ @ @ @ u 9._ @ @ @ 3 ' # * @ @ } > # # # 2.@ @ @ 9 ) # # 5 @ @ @ @ @ @ ~.@ @ @ ..+.# # # # # # # # # # # # # # # # # # # # # # # # # # # # # # # # # # # # # # # # # # # # # # # # # # # # # # # # # @ @ @ @ ",
"+ + + + # ) @ @ @ 7 8 # # # # # # # # # # * @ @ } > # w.d @ @ @ @ 4 9 ~.@ @ W x.# * @ @ } > # # # 2.@ @ @ 9 ) # # y.~.@ @ @ z.A _ @ @ @ 3 ' # * @ @ } > # # # 2.@ @ @ 9 ) # # ` U @ @ @ @ C m @ @ @ ..+.# # # # # # # # # # # # # # # # # # # # # # # # # # # # # # # # # # # # # # # # # # # # # # # # # # # # # # # # # @ @ @ @ ",
"+ + + + # # $ % % % 8 # # # # # # # # # # # ; % % > # # D K 7 v.m % 5.) ;.% % b.# # ; % % > # # # # A.% % % ) # # # 2.f.7 4...A # , % % % ' # # ; % % > # # # # A.% % % ) # # # ' 0.v.7 m.3 0.@ @ @ B.+.# # # # # # # # # # # # # # # # # # # # # # # # # # # # # # # # # # # # # # # # # # # # # # # # # # # # # # # # # @ @ @ @ ",
"+ + + + # # # # # # # # # # # # # # # # # # # # # # # # # C._.8 8.D.# # # # # # # # # # # # # # # # # # # # # # # # # E.F.G.] +.# # # # # # # # # # # # # # # # # # # # # # S * * q.h.#.8 H.q.@ @ p 0 E.# # # # # # # # # # # # # # # # # # # # # # # # # # # # # # # # # # # # # # # # # # # # # # # # # # # # # # # # # @ @ @ @ ",
"+ + + + # # # # # # # # # # # # # # # # # # # # # # # # # # # # # # # # # # # # # # # # # # # # # # # # # # # # # # # # # # # # # # # # # # # # # # # # # # # # # # # # # # o.@ @ p ;.9.< = t @ @ t.0.< # # # # # # # # # # # # # # # # # # # # # # # # # # # # # # # # # # # # # # # # # # # # # # # # # # # # # # # # # @ @ @ @ ",
"+ + + + # # # # # # # # # # # # # # # # # # # # # # # # # # # # # # # # # # # # # # # # # # # # # # # # # # # # # # # # # # # # # # # # # # # # # # # # # # # # # # # # # # h.6 @ @ @  .~.@ @ @ C B.I.# # # # # # # # # # # # # # # # # # # # # # # # # # # # # # # # # # # # # # # # # # # # # # # # # # # # # # # # # # @ @ @ @ ",
"+ + + + # # # # # # # # # # # # # # # # # # # # # # # # # # # # # # # # # # # # # # # # # # # # # # # # # # # # # # # # # # # # # # # # # # # # # # # # # # # # # # # # # # # J.B } @ @ @ @ s i.(.[ K.# # # # # # # # # # # # # # # # # # # # # # # # # # # # # # # # # # # # # # # # # # # # # # # # # # # # # # # # # # @ @ @ @ ",
"+ + + + # # # # # # # # # # # # # # # # # # # # # # # # # # # # # # # # # # # # # # # # # # # # # # # # # # # # # # # # # # # # # # # # # # # # # # # # # # # # # # # # # # # # 2 L.(.K K 1 % M.y N.# # # # # # # # # # # # # # # # # # # # # # # # # # # # # # # # # # # # # # # # # # # # # # # # # # # # # # # # # # # @ @ @ @ ",
"+ + + + # # # # # # # # # # # # # # # # # # # # # # # # # # # # # # # # # # # # # # # # # # # # # # # # # # # # # # # # # # # # # # # # # # # # # # # # # # # # # # # # # # # # # # O.P.x.A.D # # # # # # # # # # # # # # # # # # # # # # # # # # # # # # # # # # # # # # # # # # # # # # # # # # # # # # # # # # # # # # @ @ @ @ ",
"+ + + + @ @ @ @ @ @ @ @ @ @ @ @ @ @ @ @ @ @ @ @ @ @ @ @ @ @ @ @ @ @ @ @ @ @ @ @ @ @ @ @ @ @ @ @ @ @ @ @ @ @ @ @ @ @ @ @ @ @ @ @ @ @ @ @ @ @ @ @ @ @ @ @ @ @ @ @ @ @ @ @ @ @ @ @ @ @ @ @ @ @ @ @ @ @ @ @ @ @ @ @ @ @ @ @ @ @ @ @ @ @ @ @ @ @ @ @ @ @ @ @ @ @ @ @ @ @ @ @ @ @ @ @ @ @ @ @ @ @ @ @ @ @ @ @ @ @ @ @ @ @ @ @ @ @ @ @ @ ",
"+ + + @ @ @ @ @ @ @ @ @ @ @ @ @ @ @ @ @ @ @ @ @ @ @ @ @ @ @ @ @ @ @ @ @ @ @ @ @ @ @ @ @ @ @ @ @ @ @ @ @ @ @ @ @ @ @ @ @ @ @ @ @ @ @ @ @ @ @ @ @ @ @ @ @ @ @ @ @ @ @ @ @ @ @ @ @ @ @ @ @ @ @ @ @ @ @ @ @ @ @ @ @ @ @ @ @ @ @ @ @ @ @ @ @ @ @ @ @ @ @ @ @ @ @ @ @ @ @ @ @ @ @ @ @ @ @ @ @ @ @ @ @ @ @ @ @ @ @ @ @ @ @ @ @ @ @ @ @ @ ",
"+ + @ @ @ @ @ @ @ @ @ @ @ @ @ @ @ @ @ @ @ @ @ @ @ @ @ @ @ @ @ @ @ @ @ @ @ @ @ @ @ @ @ @ @ @ @ @ @ @ @ @ @ @ @ @ @ @ @ @ @ @ @ @ @ @ @ @ @ @ @ @ @ @ @ @ @ @ @ @ @ @ @ @ @ @ @ @ @ @ @ @ @ @ @ @ @ @ @ @ @ @ @ @ @ @ @ @ @ @ @ @ @ @ @ @ @ @ @ @ @ @ @ @ @ @ @ @ @ @ @ @ @ @ @ @ @ @ @ @ @ @ @ @ @ @ @ @ @ @ @ @ @ @ @ @ @ @ @ @ @ ",
"+ @ @ @ @ @ @ @ @ @ @ @ @ @ @ @ @ @ @ @ @ @ @ @ @ @ @ @ @ @ @ @ @ @ @ @ @ @ @ @ @ @ @ @ @ @ @ @ @ @ @ @ @ @ @ @ @ @ @ @ @ @ @ @ @ @ @ @ @ @ @ @ @ @ @ @ @ @ @ @ @ @ @ @ @ @ @ @ @ @ @ @ @ @ @ @ @ @ @ @ @ @ @ @ @ @ @ @ @ @ @ @ @ @ @ @ @ @ @ @ @ @ @ @ @ @ @ @ @ @ @ @ @ @ @ @ @ @ @ @ @ @ @ @ @ @ @ @ @ @ @ @ @ @ @ @ @ @ @ @ @ "};
