/* XPM */
static char * wall_drawing_xpm[] = {
"161 35 198 2",
"  	c None",
". 	c #E6E6E6",
"+ 	c #F3F3F3",
"@ 	c #FFFFFF",
"# 	c #000000",
"$ 	c #828282",
"% 	c #BCBCBC",
"& 	c #737373",
"* 	c #717171",
"= 	c #6E6E6E",
"- 	c #848484",
"; 	c #818181",
"> 	c #B5B5B5",
", 	c #383838",
"' 	c #BBBBBB",
") 	c #B3B3B3",
"! 	c #A3A3A3",
"~ 	c #6D6D6D",
"{ 	c #2A2A2A",
"] 	c #858585",
"^ 	c #CFCFCF",
"/ 	c #535353",
"( 	c #BABABA",
"_ 	c #CDCDCD",
": 	c #4F4F4F",
"< 	c #B9B9B9",
"[ 	c #B1B1B1",
"} 	c #5F5F5F",
"| 	c #F9F9F9",
"1 	c #E8E8E8",
"2 	c #808080",
"3 	c #989898",
"4 	c #929292",
"5 	c #1C1C1C",
"6 	c #EEEEEE",
"7 	c #898989",
"8 	c #DADADA",
"9 	c #EDEDED",
"0 	c #878787",
"a 	c #D7D7D7",
"b 	c #FCFCFC",
"c 	c #BDBDBD",
"d 	c #636363",
"e 	c #FBFBFB",
"f 	c #FDFDFD",
"g 	c #9C9C9C",
"h 	c #BFBFBF",
"i 	c #FAFAFA",
"j 	c #A1A1A1",
"k 	c #F4F4F4",
"l 	c #9F9F9F",
"m 	c #F1F1F1",
"n 	c #B8B8B8",
"o 	c #E1E1E1",
"p 	c #F7F7F7",
"q 	c #757575",
"r 	c #C8C8C8",
"s 	c #A7A7A7",
"t 	c #C0C0C0",
"u 	c #5C5C5C",
"v 	c #DBDBDB",
"w 	c #4D4D4D",
"x 	c #6C6C6C",
"y 	c #666666",
"z 	c #353535",
"A 	c #E2E2E2",
"B 	c #A6A6A6",
"C 	c #969696",
"D 	c #E5E5E5",
"E 	c #303030",
"F 	c #262626",
"G 	c #656565",
"H 	c #4B4B4B",
"I 	c #D5D5D5",
"J 	c #464646",
"K 	c #D6D6D6",
"L 	c #484848",
"M 	c #909090",
"N 	c #C7C7C7",
"O 	c #7F7F7F",
"P 	c #B7B7B7",
"Q 	c #F0F0F0",
"R 	c #FEFEFE",
"S 	c #9A9A9A",
"T 	c #8B8B8B",
"U 	c #333333",
"V 	c #F5F5F5",
"W 	c #F8F8F8",
"X 	c #ADADAD",
"Y 	c #494949",
"Z 	c #CCCCCC",
"` 	c #9D9D9D",
" .	c #7C7C7C",
"..	c #949494",
"+.	c #3B3B3B",
"@.	c #C5C5C5",
"#.	c #A9A9A9",
"$.	c #7A7A7A",
"%.	c #E3E3E3",
"&.	c #454545",
"*.	c #606060",
"=.	c #ECECEC",
"-.	c #C4C4C4",
";.	c #747474",
">.	c #4C4C4C",
",.	c #0D0D0D",
"'.	c #C1C1C1",
").	c #D9D9D9",
"!.	c #AFAFAF",
"~.	c #595959",
"{.	c #282828",
"].	c #868686",
"^.	c #C3C3C3",
"/.	c #8E8E8E",
"(.	c #DEDEDE",
"_.	c #E9E9E9",
":.	c #F2F2F2",
"<.	c #919191",
"[.	c #E7E7E7",
"}.	c #B0B0B0",
"|.	c #9B9B9B",
"1.	c #797979",
"2.	c #D3D3D3",
"3.	c #434343",
"4.	c #D1D1D1",
"5.	c #2E2E2E",
"6.	c #7E7E7E",
"7.	c #3C3C3C",
"8.	c #EFEFEF",
"9.	c #787878",
"0.	c #3D3D3D",
"a.	c #C6C6C6",
"b.	c #474747",
"c.	c #8C8C8C",
"d.	c #EAEAEA",
"e.	c #CACACA",
"f.	c #AAAAAA",
"g.	c #D4D4D4",
"h.	c #D0D0D0",
"i.	c #838383",
"j.	c #D8D8D8",
"k.	c #CBCBCB",
"l.	c #686868",
"m.	c #999999",
"n.	c #DDDDDD",
"o.	c #A4A4A4",
"p.	c #B6B6B6",
"q.	c #696969",
"r.	c #DCDCDC",
"s.	c #A5A5A5",
"t.	c #515151",
"u.	c #7D7D7D",
"v.	c #777777",
"w.	c #575757",
"x.	c #BEBEBE",
"y.	c #8A8A8A",
"z.	c #CECECE",
"A.	c #707070",
"B.	c #C9C9C9",
"C.	c #D2D2D2",
"D.	c #323232",
"E.	c #4E4E4E",
"F.	c #767676",
"G.	c #5E5E5E",
"H.	c #E0E0E0",
"I.	c #161616",
"J.	c #191919",
"K.	c #EBEBEB",
"L.	c #242424",
"M.	c #E4E4E4",
"N.	c #5D5D5D",
"O.	c #ABABAB",
"P.	c #5B5B5B",
"Q.	c #1F1F1F",
"R.	c #939393",
"S.	c #7B7B7B",
"T.	c #979797",
"U.	c #959595",
"V.	c #222222",
"W.	c #F6F6F6",
"X.	c #9E9E9E",
"Y.	c #5A5A5A",
"Z.	c #A8A8A8",
"`.	c #404040",
" +	c #C2C2C2",
".+	c #616161",
"++	c #A2A2A2",
"@+	c #DFDFDF",
"#+	c #545454",
"$+	c #121212",
"%+	c #ACACAC",
"&+	c #626262",
"*+	c #424242",
"=+	c #676767",
"-+	c #414141",
";+	c #B4B4B4",
">+	c #8F8F8F",
",+	c #060606",
". . . . . . . . . . . . . . . . . . . . . . . . . . . . . . . . . . . . . . . . . . . . . . . . . . . . . . . . . . . . . . . . . . . . . . . . . . . . . . . . . . . . . . . . . . . . . . . . . . . . . . . . . . . . . . . . . . . . . . . . . . . . . . . . . . . . . . . . . . . . . . . . . . . . . . . . . . . . . . . . . ",
"+ . . . . . . . . . . . . . . . . . . . . . . . . . . . . . . . . . . . . . . . . . . . . . . . . . . . . . . . . . . . . . . . . . . . . . . . . . . . . . . . . . . . . . . . . . . . . . . . . . . . . . . . . . . . . . . . . . . . . . . . . . . . . . . . . . . . . . . . . . . . . . . . . . . . . . . . . . . . . . . . @ ",
"+ + . . . . . . . . . . . . . . . . . . . . . . . . . . . . . . . . . . . . . . . . . . . . . . . . . . . . . . . . . . . . . . . . . . . . . . . . . . . . . . . . . . . . . . . . . . . . . . . . . . . . . . . . . . . . . . . . . . . . . . . . . . . . . . . . . . . . . . . . . . . . . . . . . . . . . . . . . . . . . @ @ ",
"+ + + . . . . . . . . . . . . . . . . . . . . . . . . . . . . . . . . . . . . . . . . . . . . . . . . . . . . . . . . . . . . . . . . . . . . . . . . . . . . . . . . . . . . . . . . . . . . . . . . . . . . . . . . . . . . . . . . . . . . . . . . . . . . . . . . . . . . . . . . . . . . . . . . . . . . . . . . . . . @ @ @ ",
"+ + + + # # # # # # # # # # # # # # # # # # # # # # # # # # # # # # # # # # # # # # # # # # # # # # # # # # # # # # # # # # # # # # # # # # # # # # # # # # # # # # # # # # # # # # # # # # # # # # # # # # # # # # # # # # # # # # # # # # # # # # # # # # # # # # # # # # # # # # # # # # # # # # # # # # # # # # # # # @ @ @ @ ",
"+ + + + # # # # # # # # # # # # # # # # # # # # # # # # # # # # # # # # # # # # # # # # # # # # # # # # # # # # # # # # # # # # # # # # # # # # # # # # # # # # # # # # # # # # # # # # # # # # # # # # # # # # # # # # # # # # # # # # # # # # # # # # # # # # # # # # # # # # # # # # # # # # # # # # # # # # # # # # # @ @ @ @ ",
"+ + + + $ % % % & # # # # * % % % = # # # # * % % % - # # # # # # # # # # # # # # # ; % % > # # ; % % > # # # # # # # # # , % % % % % % ' ) ! ~ # # # # # # # # # # # # # # # # # # # # # # # # # # # # # # # # # # # # # # # # # # # # # # # # = % % % { # # # # # # # # # # # # # # # # # # # # # # # # # # # # # # # # @ @ @ @ ",
"+ + + + ] @ @ @ ^ / # # # ( @ @ @ _ : # # # < @ @ @ [ } # # # # # # # # # # # # # # [ @ @ | - # [ @ @ | - # # # # # # # # : @ @ @ @ @ @ @ @ @ @ 1 2 # # # # # # # # # # # # # # # # # # # # # # # # # # # # # # # # # # # # # # # # # # # # # # 3 @ @ @ 4 5 # # # # # # # # # # # # # # # # # # # # # # # # # # # # # # # @ @ @ @ ",
"+ + + + 5 | @ @ 6 7 # # # 8 @ @ @ 9 0 # # # a @ @ b c d # # # # # # # # # # # # # # [ @ @ e > # [ @ @ e > # # # # # # # # : @ @ @ @ @ @ @ @ @ @ @ f g # # # # # # # # # # # # # # # # # # # # # # # # # # # # # # # # # # # # # # # # # # # # # 3 @ @ @ h { # # # # # # # # # # # # # # # # # # # # # # # # # # # # # # # @ @ @ @ ",
"+ + + + # a @ @ i j # # # k @ @ @ i l # # # m @ @ 9 n 5 # # # # # # # # # # # # # # [ @ @ e > # [ @ @ e > # # # # # # # # : @ @ @ m o o o . p @ @ @ | q # # # # # # # # # # # # # # # # # # # # # # # # # # # # # # # # # # # # # # # # # # # # = r o o c { # # # # # # # # # # # # # # # # # # # # # # # # # # # # # # # @ @ @ @ ",
"+ + + + # s @ @ @ t # # u @ @ i @ @ t # # : @ @ @ v l # # # # # w x y z # # # # # # [ @ @ e > # [ @ @ e > # # # # # # # # : @ @ @ A B 7 7 7 C D @ @ @ v E # # # # # # # F y # # # # # w x y z # # # # # # # # # # # # # # # # # # # # # # # # # # : 7 7 7 5 # # # # # # # { G } # # # # # # # # # # H y F # # # # # # # # @ @ @ @ ",
"+ + + + # u @ @ @ I J # 3 @ @ o @ @ K L # M @ @ @ N O # # { P Q @ @ @ R . S # # # # [ @ @ e > # [ @ @ e > # # # # # # # # : @ @ @ A T # # # # U V @ @ W ] # X i i m # > | p Y # { P Q @ @ @ R . S # # # Z i i . # # # ` i i i  .# # H i i i l # ..i i i +.# # X i i m z @.| @ @ k #.# # # # # # $.%.@ @ W > &.i i i *.# # @ @ @ @ ",
"+ + + + # # =.@ @ %.* # h @ @ -.R @ D ;.# P @ @ W % >.# ,.v @ @ @ @ @ @ @ @ < # # # [ @ @ e > # [ @ @ e > # # # # # # # # : @ @ @ A T # # # # # '.@ @ @ ' # [ @ @ e ).@ @ e > ,.v @ @ @ @ @ @ @ @ < # # j @ @ @ !.# # N @ @ @ ).~.# 4 @ @ @ t & 3 @ @ @ % {.# [ @ @ e 9 @ @ @ @ @ @ % # # # # ].e @ @ @ @ @ K @ @ @ ^.&.# @ @ @ @ ",
"+ + + + # # ^.@ @ Q /.# (.@ p ' _.@ :.<.# K @ @ [.}.# # |.@ @ @ :.D 1 e @ @ | 1.# # [ @ @ e > # [ @ @ e > # # # # # # # # : @ @ @ A T # # # # # S @ @ @ 2.3.[ @ @ f b @ @ e > |.@ @ @ :.D 1 e @ @ | 1.# : R @ @ 4.5.# . @ @ @ _.6.# c @ @ k ' 7.3 @ @ @ h { # [ @ @ @ @ W 8.p @ @ @ W 9.# # 0.:.@ @ @ 8.9 f @ @ @ @ a.b.# @ @ @ @ ",
"+ + + + # # c.@ @ b B # p @ d.!.e.@ f f.# Q @ @ g...# # h.@ @ Q % s <.% @ @ @ n # # [ @ @ e > # [ @ @ e > # # # # # # # # : @ @ @ A T # # # # # i.@ @ @ j.x [ @ @ @ e 8 Z k.> h.@ @ Q % s <.% @ @ @ n # # 1 @ @ o l.5.b @ @ @ p m.# n.@ @ A f.# 3 @ @ @ h { # [ @ @ @ _.c ) o.[.@ @ @ < # # }.@ @ @ g.' ! p.b @ @ @ a.b.# @ @ @ @ ",
"+ + + + # # { i @ @ @.q.@ @ r.S s.@ @ k.t.@ @ R t = # # i.t g.r o.# # < @ @ @ ^.E # [ @ @ e > # [ @ @ e > # # # # # # # # : @ @ @ A T # # # # # u.@ @ @ 8 v.[ @ @ @ 2.> 2 u w.i.t g.r o.# # < @ @ @ ^.E # x.@ @ 8.y.; @ @ 8.@ @ p.,.p @ @ z.c.# 3 @ @ @ h { # [ @ @ @ '.3 5 # M @ @ @ r +.# A @ @ m % A.# # N @ @ @ a.b.# @ @ @ @ ",
"+ + + + # # # 8 @ @ j.#.@ @ _ 2 A.@ @ r.l @ @ m ( 5.# # # }  .[ B.v + @ @ @ @ ^.0.# [ @ @ e > # [ @ @ e > # # # # # # # # : @ @ @ A T # # # # # y.@ @ @ I  .[ @ @ R c x # # # # }  .[ B.v + @ @ @ @ ^.0.# i.@ @ b o.[ @ R C.@ @ C.9.@ @ e c *.# 3 @ @ @ h { # [ @ @ e ' D.# # u.@ @ @ r E.# i @ @ (.s.# # # F.@ @ @ a.b.# @ @ @ @ ",
"+ + + + # # # X @ @ . 4.@ R x.G.,.| @ d.B.@ @ H.B # # # I.( b @ @ @ @ R @ @ @ ^.0.# [ @ @ e > # [ @ @ e > # # # # # # # # : @ @ @ A T # # # # # f.@ @ @ _ * [ @ @ e ' J.# # # I.( b @ @ @ @ R @ @ @ ^.0.# 5 W @ @ N g.@ k x.R @ H.> @ @ =.p.I.# 3 @ @ @ h { # [ @ @ e > # # # u.@ @ @ r : { @ @ @ K - # # # &.@ @ @ a.b.# @ @ @ @ ",
"+ + + + # # # G @ @ + K.@ k ( L.# (.@ p M.@ @ Z 0 # # # [ @ @ @ Q n.^ _ @ @ @ ^.0.# [ @ @ e > # [ @ @ e > # # # # # # # # : @ @ @ A T # # # # # a @ @ R x.N.[ @ @ e > # # # # [ @ @ @ Q n.^ _ @ @ @ ^.0.# # I @ @ v :.@ . O.d.@ 6 ).@ @ ).` # # 3 @ @ @ h { # [ @ @ e > # # # u.@ @ @ r : I.@ @ @ 8 ;.# # # N.@ @ @ a.b.# @ @ @ @ ",
"+ + + + # # # # 8.@ f b @ [.f.# # x.@ @ i @ e % P.# # # 8.@ @ M.% ! i.s.@ @ @ ^.0.# [ @ @ e > # [ @ @ e > # # # # # # # # : @ @ @ A T # # # # 6.R @ @ 9 ( Q.[ @ @ e > # # # # 8.@ @ M.% ! i.s.@ @ @ ^.0.# # s @ @ 8.@ @ a R.Z @ e m @ @ -.1.# # 3 @ @ @ h { # [ @ @ e > # # # u.@ @ @ r : # k @ @ . S.# # # T.@ @ @ a.b.# @ @ @ @ ",
"+ + + + # # # # N @ @ @ @ ).U.# # U.@ @ @ @ K.> ,.# # V.R @ @ j./.# # e.@ @ @ ^.0.# [ @ @ e > # [ @ @ e > # # # # # # # # : @ @ @ A T # # w s.W.@ @ @ z.X.# [ @ @ e > # # # V.R @ @ j./.# # e.@ @ @ ^.0.# # Y.@ @ @ @ @ a.q Z.@ @ @ @ V % `.# # 3 @ @ @ h { # [ @ @ e > # # # u.@ @ @ r : # a @ @ b l # # V.. @ @ @ a.b.# @ @ @ @ ",
"+ + + + # # # # 4 @ @ @ @ e.$.# # / @ @ @ @ j.|.# # # # i @ @ W.O.;  +R @ @ @ ^.0.# [ @ @ e > # [ @ @ e > # # # # # # # # : @ @ @ @ @ @ @ @ @ @ @ @ [.% .+# [ @ @ e > # # # # i @ @ W.O.;  +R @ @ @ ^.0.# # # K.@ @ @ i % Y q @ @ @ @ %.O.# # # 3 @ @ @ h { # [ @ @ e > # # # u.@ @ @ r : # U.@ @ @ k ++m.@+@ @ @ @ a.b.# @ @ @ @ ",
"+ + + + # # # # z b @ @ f c #+# # # m @ @ @ -.9.# # # # C.@ @ @ @ @ @ i @ @ @ Z 0.# [ @ @ e > # [ @ @ e > # # # # # # # # : @ @ @ @ @ @ @ @ @ @ @ d.c ..# # [ @ @ e > # # # # C.@ @ @ @ @ @ i @ @ @ Z 0.# # #  +@ @ @ =.) # I.i @ @ @ ^ /.# # # 3 @ @ @ h { # [ @ @ e > # # # u.@ @ @ r : # # o @ @ @ @ @ @ b @ @ @ a.b.# @ @ @ @ ",
"+ + + + # # # # # n.@ @ m n $+# # # g.@ @ V % `.# # # # t.Q @ @ @ @ m r b @ @ 8.u # [ @ @ e > # [ @ @ e > # # # # # # # # : @ @ @ @ @ @ @ b p _.h.% |.5 # # [ @ @ e > # # # # t.Q @ @ @ @ m r b @ @ 8.u # # # 7 @ @ @ (.X.# # o @ @ b c d # # # 3 @ @ @ h { # [ @ @ e > # # # u.@ @ @ r : # # 0.1 @ @ @ @ W ^ @ @ @ a.b.# @ @ @ @ ",
"+ + + + # # # # # # ++% % B # # # # # |.% % %+# # # # # # &.Z A @+^ % s.: n % % ++# # ; % % > # # ; % % > # # # # # # # # # , % % % % % % % n !.3 G # # # # # ; % % > # # # # # &.Z A @+^ % s.: n % % ++# # # # d % % % i.# # # s.% % P J.# # # # = % % % { # # ; % % > # # # # Y.% % % : # # # { ( @+A j.h ( @ @ @ -.b.# @ @ @ @ ",
"+ + + + # # # # # # # # # # # # # # # # # # # # # # # # # # J.A.T 0 &+# # # # # # # # # # # # # # # # # # # # # # # # # # # # # # # # # # # # # # # # # # # # # # # # # # # # # # J.A.T 0 &+# # # # # # # # # # # # # # # # # # # # # # # # # # # # # # # # # # # # # # # # # # # # # # # # |.[ [ l N.] T v.l @ @ R c *+# @ @ @ @ ",
"+ + + + # # # # # # # # # # # # # # # # # # # # # # # # # # # # # # # # # # # # # # # # # # # # # # # # # # # # # # # # # # # # # # # # # # # # # # # # # # # # # # # # # # # # # # # # # # # # # # # # # # # # # # # # # # # # # # # # # # # # # # # # # # # # # # # # # # # # # # # # # # e.@ @ R n I.5 M k @ @ K.( 5 # @ @ @ @ ",
"+ + + + # # # # # # # # # # # # # # # # # # # # # # # # # # # # # # # # # # # # # # # # # # # # # # # # # # # # # # # # # # # # # # # # # # # # # # # # # # # # # # # # # # # # # # # # # # # # # # # # # # # # # # # # # # # # # # # # # # # # # # # # # # # # # # # # # # # # # # # # # # N.W.@ @ @ f b @ @ @ W -.g # # @ @ @ @ ",
"+ + + + # # # # # # # # # # # # # # # # # # # # # # # # # # # # # # # # # # # # # # # # # # # # # # # # # # # # # # # # # # # # # # # # # # # # # # # # # # # # # # # # # # # # # # # # # # # # # # # # # # # # # # # # # # # # # # # # # # # # # # # # # # # # # # # # # # # # # # # # # # # =+%.e @ @ @ @ i M.'.}.-+# # @ @ @ @ ",
"+ + + + # # # # # # # # # # # # # # # # # # # # # # # # # # # # # # # # # # # # # # # # # # # # # # # # # # # # # # # # # # # # # # # # # # # # # # # # # # # # # # # # # # # # # # # # # # # # # # # # # # # # # # # # # # # # # # # # # # # # # # # # # # # # # # # # # # # # # # # # # # # # +.R.'.Z Z @.% ;+>+U # # # @ @ @ @ ",
"+ + + + # # # # # # # # # # # # # # # # # # # # # # # # # # # # # # # # # # # # # # # # # # # # # # # # # # # # # # # # # # # # # # # # # # # # # # # # # # # # # # # # # # # # # # # # # # # # # # # # # # # # # # # # # # # # # # # # # # # # # # # # # # # # # # # # # # # # # # # # # # # # # # ,+L u Y.&.# # # # # # @ @ @ @ ",
"+ + + + @ @ @ @ @ @ @ @ @ @ @ @ @ @ @ @ @ @ @ @ @ @ @ @ @ @ @ @ @ @ @ @ @ @ @ @ @ @ @ @ @ @ @ @ @ @ @ @ @ @ @ @ @ @ @ @ @ @ @ @ @ @ @ @ @ @ @ @ @ @ @ @ @ @ @ @ @ @ @ @ @ @ @ @ @ @ @ @ @ @ @ @ @ @ @ @ @ @ @ @ @ @ @ @ @ @ @ @ @ @ @ @ @ @ @ @ @ @ @ @ @ @ @ @ @ @ @ @ @ @ @ @ @ @ @ @ @ @ @ @ @ @ @ @ @ @ @ @ @ @ @ @ @ @ @ @ @ ",
"+ + + @ @ @ @ @ @ @ @ @ @ @ @ @ @ @ @ @ @ @ @ @ @ @ @ @ @ @ @ @ @ @ @ @ @ @ @ @ @ @ @ @ @ @ @ @ @ @ @ @ @ @ @ @ @ @ @ @ @ @ @ @ @ @ @ @ @ @ @ @ @ @ @ @ @ @ @ @ @ @ @ @ @ @ @ @ @ @ @ @ @ @ @ @ @ @ @ @ @ @ @ @ @ @ @ @ @ @ @ @ @ @ @ @ @ @ @ @ @ @ @ @ @ @ @ @ @ @ @ @ @ @ @ @ @ @ @ @ @ @ @ @ @ @ @ @ @ @ @ @ @ @ @ @ @ @ @ @ @ ",
"+ + @ @ @ @ @ @ @ @ @ @ @ @ @ @ @ @ @ @ @ @ @ @ @ @ @ @ @ @ @ @ @ @ @ @ @ @ @ @ @ @ @ @ @ @ @ @ @ @ @ @ @ @ @ @ @ @ @ @ @ @ @ @ @ @ @ @ @ @ @ @ @ @ @ @ @ @ @ @ @ @ @ @ @ @ @ @ @ @ @ @ @ @ @ @ @ @ @ @ @ @ @ @ @ @ @ @ @ @ @ @ @ @ @ @ @ @ @ @ @ @ @ @ @ @ @ @ @ @ @ @ @ @ @ @ @ @ @ @ @ @ @ @ @ @ @ @ @ @ @ @ @ @ @ @ @ @ @ @ @ ",
"+ @ @ @ @ @ @ @ @ @ @ @ @ @ @ @ @ @ @ @ @ @ @ @ @ @ @ @ @ @ @ @ @ @ @ @ @ @ @ @ @ @ @ @ @ @ @ @ @ @ @ @ @ @ @ @ @ @ @ @ @ @ @ @ @ @ @ @ @ @ @ @ @ @ @ @ @ @ @ @ @ @ @ @ @ @ @ @ @ @ @ @ @ @ @ @ @ @ @ @ @ @ @ @ @ @ @ @ @ @ @ @ @ @ @ @ @ @ @ @ @ @ @ @ @ @ @ @ @ @ @ @ @ @ @ @ @ @ @ @ @ @ @ @ @ @ @ @ @ @ @ @ @ @ @ @ @ @ @ @ @ "};
