/* XPM */
static char * quad_zoom_xpm[] = {
"38 34 120 2",
"  	c None",
". 	c #E6E6E6",
"+ 	c #F3F3F3",
"@ 	c #FFFFFF",
"# 	c #000000",
"$ 	c #161616",
"% 	c #121212",
"& 	c #323232",
"* 	c #898989",
"= 	c #303030",
"- 	c #808080",
"; 	c #4C4C4C",
"> 	c #8B8B8B",
", 	c #BCBCBC",
"' 	c #BDBDBD",
") 	c #A7A7A7",
"! 	c #1C1C1C",
"~ 	c #A5A5A5",
"{ 	c #E0E0E0",
"] 	c #E1E1E1",
"^ 	c #D0D0D0",
"/ 	c #454545",
"( 	c #686868",
"_ 	c #DCDCDC",
": 	c #DADADA",
"< 	c #6A6A6A",
"[ 	c #4A4A4A",
"} 	c #B9B9B9",
"| 	c #E2E2E2",
"1 	c #414141",
"2 	c #EBEBEB",
"3 	c #C2C2C2",
"4 	c #ACACAC",
"5 	c #D1D1D1",
"6 	c #E9E9E9",
"7 	c #A0A0A0",
"8 	c #C7C7C7",
"9 	c #FDFDFD",
"0 	c #969696",
"a 	c #FCFCFC",
"b 	c #565656",
"c 	c #7B7B7B",
"d 	c #F5F5F5",
"e 	c #FEFEFE",
"f 	c #7D7D7D",
"g 	c #6C6C6C",
"h 	c #EEEEEE",
"i 	c #D6D6D6",
"j 	c #CDCDCD",
"k 	c #2A2A2A",
"l 	c #B3B3B3",
"m 	c #C6C6C6",
"n 	c #222222",
"o 	c #B0B0B0",
"p 	c #D3D3D3",
"q 	c #F4F4F4",
"r 	c #626262",
"s 	c #A2A2A2",
"t 	c #BFBFBF",
"u 	c #FAFAFA",
"v 	c #F2F2F2",
"w 	c #404040",
"x 	c #BEBEBE",
"y 	c #F7F7F7",
"z 	c #DBDBDB",
"A 	c #E8E8E8",
"B 	c #B4B4B4",
"C 	c #EAEAEA",
"D 	c #979797",
"E 	c #474747",
"F 	c #9F9F9F",
"G 	c #353535",
"H 	c #E5E5E5",
"I 	c #D7D7D7",
"J 	c #888888",
"K 	c #FBFBFB",
"L 	c #F9F9F9",
"M 	c #5C5C5C",
"N 	c #ECECEC",
"O 	c #535353",
"P 	c #D8D8D8",
"Q 	c #AEAEAE",
"R 	c #AFAFAF",
"S 	c #D2D2D2",
"T 	c #717171",
"U 	c #060606",
"V 	c #C9C9C9",
"W 	c #787878",
"X 	c #D4D4D4",
"Y 	c #8F8F8F",
"Z 	c #7C7C7C",
"` 	c #424242",
" .	c #7F7F7F",
"..	c #E4E4E4",
"+.	c #939393",
"@.	c #3C3C3C",
"#.	c #B6B6B6",
"$.	c #C1C1C1",
"%.	c #9B9B9B",
"&.	c #C3C3C3",
"*.	c #838383",
"=.	c #3F3F3F",
"-.	c #BABABA",
";.	c #EFEFEF",
">.	c #585858",
",.	c #858585",
"'.	c #242424",
").	c #2E2E2E",
"!.	c #8D8D8D",
"~.	c #5F5F5F",
"{.	c #8A8A8A",
"].	c #666666",
"^.	c #E3E3E3",
"/.	c #C0C0C0",
"(.	c #191919",
"_.	c #D5D5D5",
":.	c #737373",
"<.	c #F6F6F6",
"[.	c #262626",
"}.	c #A1A1A1",
". . . . . . . . . . . . . . . . . . . . . . . . . . . . . . . . . . . . . . ",
"+ . . . . . . . . . . . . . . . . . . . . . . . . . . . . . . . . . . . . @ ",
"+ + . . . . . . . . . . . . . . . . . . . . . . . . . . . . . . . . . . @ @ ",
"+ + + . . . . . . . . . . . . . . . . . . . . . . . . . . . . . . . . @ @ @ ",
"+ + + + # # # # # # # # # # # # # # # # # # # # # # # # # # # # # # @ @ @ @ ",
"+ + + + # # # # # # # # # # # # # # # # # # # # # # # # # # # # # # @ @ @ @ ",
"+ + + + # # # # # # # $ $ $ % # # & * * * * = # # # # # - * * * ; # @ @ @ @ ",
"+ + + + # # # # # # > , ' ' ) ! # # ~ { ] ] ^ / # # # ( , _ ] : , < @ @ @ @ ",
"+ + + + # # # # # [ } | @ @ @ ] # # 1 2 @ @ @ 3 # # % 4 5 @ @ @ 6 ! @ @ @ @ ",
"+ + + + # # # # # 7 8 9 @ @ @ ] # # # 0 a @ @ a b # c ' d @ @ e f # @ @ @ @ ",
"+ + + + # # # # g , h @ @ @ @ ] # # # % i @ @ @ j k l : @ @ @ m # # @ @ @ @ ",
"+ + + + # # # n o p @ e q @ @ ] # # # # r q @ @ e s t u @ @ v w # # @ @ @ @ ",
"+ + + + # # # * x y @ z A @ @ ] # # # # # B @ @ @ C | @ @ @ D # # # @ @ @ @ ",
"+ + + + # # E } { @ d F A @ @ ] # # # # # G H @ @ @ 9 @ @ I # # # # @ @ @ @ ",
"+ + + + # # F m 9 @ s 0 A @ @ ] # # # # # # J K @ @ @ @ L M # # # # @ @ @ @ ",
"+ + + + # < , N @ { # 0 A @ @ ] # # # # # # O P @ @ @ @ Q # # # # # @ @ @ @ ",
"+ + + + ! R S @ 9 T # 0 A @ @ ] # # # # # U ) V @ @ @ @ F # # # # # @ @ @ @ ",
"+ + + + W ' y @ X Y Y 4 A @ @ C < # # # # Z , v @ @ @ @ y ` # # # # @ @ @ @ ",
"+ + + +  .P @ @ . ......d @ @ L i +.# # @.#.: @ @ @ @ @ @ ^ # # # # @ @ @ @ ",
"+ + + +  .z @ @ @ @ @ @ @ @ @ @ @ $.# # %.&.K @ @ { 6 @ @ e *.# # # @ @ @ @ ",
"+ + + + =.-.@ @ @ @ @ @ @ @ @ @ @ $.# ( , 2 @ @ e W F 9 @ @ ;.n # # @ @ @ @ ",
"+ + + + # >.,.,.,.,.,.#.h @ @ 6 ,.r '.o 5 @ @ @ ^ # ).{ @ @ @ ' # # @ @ @ @ ",
"+ + + + # # # # # # # 0 A @ @ ] # # !.x y @ @ K ~.# # {.K @ @ a ].# @ @ @ @ ",
"+ + + + # # # # # # # 0 A @ @ ] # O -.^.@ @ @ /.# # # (._.@ @ @ ..# @ @ @ @ ",
"+ + + + # # # # # # # # j @ @ ] # # :.9 @ @ <.` # # # # [.h @ @ @ }.@ @ @ @ ",
"+ + + + # # # # # # # # # # # # # # # # # # # # # # # # # # # # # # @ @ @ @ ",
"+ + + + # # # # # # # # # # # # # # # # # # # # # # # # # # # # # # @ @ @ @ ",
"+ + + + # # # # # # # # # # # # # # # # # # # # # # # # # # # # # # @ @ @ @ ",
"+ + + + # # # # # # # # # # # # # # # # # # # # # # # # # # # # # # @ @ @ @ ",
"+ + + + # # # # # # # # # # # # # # # # # # # # # # # # # # # # # # @ @ @ @ ",
"+ + + + @ @ @ @ @ @ @ @ @ @ @ @ @ @ @ @ @ @ @ @ @ @ @ @ @ @ @ @ @ @ @ @ @ @ ",
"+ + + @ @ @ @ @ @ @ @ @ @ @ @ @ @ @ @ @ @ @ @ @ @ @ @ @ @ @ @ @ @ @ @ @ @ @ ",
"+ + @ @ @ @ @ @ @ @ @ @ @ @ @ @ @ @ @ @ @ @ @ @ @ @ @ @ @ @ @ @ @ @ @ @ @ @ ",
"+ @ @ @ @ @ @ @ @ @ @ @ @ @ @ @ @ @ @ @ @ @ @ @ @ @ @ @ @ @ @ @ @ @ @ @ @ @ "};
