/* XPM */
static char * select_xpm[] = {
"161 35 196 2",
"  	c None",
". 	c #E6E6E6",
"+ 	c #F3F3F3",
"@ 	c #FFFFFF",
"# 	c #000000",
"$ 	c #7A7A7A",
"% 	c #BDBDBD",
"& 	c #D8D8D8",
"* 	c #E2E2E2",
"= 	c #DFDFDF",
"- 	c #D4D4D4",
"; 	c #B7B7B7",
"> 	c #6A6A6A",
", 	c #818181",
"' 	c #BCBCBC",
") 	c #B5B5B5",
"! 	c #383838",
"~ 	c #B8B8B8",
"{ 	c #A2A2A2",
"] 	c #4F4F4F",
"^ 	c #494949",
"/ 	c #D9D9D9",
"( 	c #3D3D3D",
"_ 	c #B1B1B1",
": 	c #F9F9F9",
"< 	c #848484",
"[ 	c #737373",
"} 	c #535353",
"| 	c #FCFCFC",
"1 	c #161616",
"2 	c #E4E4E4",
"3 	c #E9E9E9",
"4 	c #2A2A2A",
"5 	c #FBFBFB",
"6 	c #EDEDED",
"7 	c #C5C5C5",
"8 	c #3B3B3B",
"9 	c #ADADAD",
"0 	c #9E9E9E",
"a 	c #F1F1F1",
"b 	c #D2D2D2",
"c 	c #C6C6C6",
"d 	c #CACACA",
"e 	c #F7F7F7",
"f 	c #C4C4C4",
"g 	c #8B8B8B",
"h 	c #E1E1E1",
"i 	c #E5E5E5",
"j 	c #F6F6F6",
"k 	c #EEEEEE",
"l 	c #666666",
"m 	c #CFCFCF",
"n 	c #BEBEBE",
"o 	c #A5A5A5",
"p 	c #696969",
"q 	c #484848",
"r 	c #555555",
"s 	c #909090",
"t 	c #E8E8E8",
"u 	c #6C6C6C",
"v 	c #2E2E2E",
"w 	c #636363",
"x 	c #5C5C5C",
"y 	c #626262",
"z 	c #686868",
"A 	c #353535",
"B 	c #A6A6A6",
"C 	c #898989",
"D 	c #959595",
"E 	c #F5F5F5",
"F 	c #FAFAFA",
"G 	c #A1A1A1",
"H 	c #585858",
"I 	c #4B4B4B",
"J 	c #454545",
"K 	c #404040",
"L 	c #5D5D5D",
"M 	c #DCDCDC",
"N 	c #F2F2F2",
"O 	c #B2B2B2",
"P 	c #1F1F1F",
"Q 	c #CCCCCC",
"R 	c #E7E7E7",
"S 	c #969696",
"T 	c #6E6E6E",
"U 	c #D7D7D7",
"V 	c #D3D3D3",
"W 	c #FDFDFD",
"X 	c #DDDDDD",
"Y 	c #7D7D7D",
"Z 	c #A0A0A0",
"` 	c #DBDBDB",
" .	c #8F8F8F",
"..	c #B4B4B4",
"+.	c #CBCBCB",
"@.	c #EFEFEF",
"#.	c #FEFEFE",
"$.	c #DADADA",
"%.	c #C7C7C7",
"&.	c #9C9C9C",
"*.	c #939393",
"=.	c #868686",
"-.	c #B9B9B9",
";.	c #ECECEC",
">.	c #515151",
",.	c #E3E3E3",
"'.	c #A7A7A7",
").	c #F0F0F0",
"!.	c #C8C8C8",
"~.	c #A4A4A4",
"{.	c #767676",
"].	c #222222",
"^.	c #474747",
"/.	c #F4F4F4",
"(.	c #707070",
"_.	c #7F7F7F",
":.	c #8D8D8D",
"<.	c #1C1C1C",
"[.	c #DEDEDE",
"}.	c #333333",
"|.	c #656565",
"1.	c #262626",
"2.	c #E0E0E0",
"3.	c #C0C0C0",
"4.	c #AEAEAE",
"5.	c #858585",
"6.	c #BBBBBB",
"7.	c #B6B6B6",
"8.	c #A9A9A9",
"9.	c #5B5B5B",
"0.	c #F8F8F8",
"a.	c #EBEBEB",
"b.	c #838383",
"c.	c #9F9F9F",
"d.	c #919191",
"e.	c #303030",
"f.	c #D5D5D5",
"g.	c #4D4D4D",
"h.	c #7C7C7C",
"i.	c #757575",
"j.	c #4A4A4A",
"k.	c #565656",
"l.	c #8A8A8A",
"m.	c #3F3F3F",
"n.	c #AFAFAF",
"o.	c #191919",
"p.	c #828282",
"q.	c #A3A3A3",
"r.	c #979797",
"s.	c #8E8E8E",
"t.	c #242424",
"u.	c #A8A8A8",
"v.	c #C2C2C2",
"w.	c #282828",
"x.	c #C1C1C1",
"y.	c #ABABAB",
"z.	c #D6D6D6",
"A.	c #CECECE",
"B.	c #0D0D0D",
"C.	c #5F5F5F",
"D.	c #AAAAAA",
"E.	c #060606",
"F.	c #323232",
"G.	c #505050",
"H.	c #747474",
"I.	c #434343",
"J.	c #121212",
"K.	c #7E7E7E",
"L.	c #717171",
"M.	c #BABABA",
"N.	c #949494",
"O.	c #CDCDCD",
"P.	c #929292",
"Q.	c #4E4E4E",
"R.	c #ACACAC",
"S.	c #888888",
"T.	c #777777",
"U.	c #D0D0D0",
"V.	c #4C4C4C",
"W.	c #EAEAEA",
"X.	c #8C8C8C",
"Y.	c #808080",
"Z.	c #B3B3B3",
"`.	c #616161",
" +	c #9A9A9A",
".+	c #C3C3C3",
"++	c #575757",
"@+	c #878787",
"#+	c #6F6F6F",
"$+	c #7B7B7B",
"%+	c #414141",
"&+	c #797979",
"*+	c #787878",
"=+	c #3C3C3C",
"-+	c #424242",
";+	c #606060",
". . . . . . . . . . . . . . . . . . . . . . . . . . . . . . . . . . . . . . . . . . . . . . . . . . . . . . . . . . . . . . . . . . . . . . . . . . . . . . . . . . . . . . . . . . . . . . . . . . . . . . . . . . . . . . . . . . . . . . . . . . . . . . . . . . . . . . . . . . . . . . . . . . . . . . . . . . . . . . . . . ",
"+ . . . . . . . . . . . . . . . . . . . . . . . . . . . . . . . . . . . . . . . . . . . . . . . . . . . . . . . . . . . . . . . . . . . . . . . . . . . . . . . . . . . . . . . . . . . . . . . . . . . . . . . . . . . . . . . . . . . . . . . . . . . . . . . . . . . . . . . . . . . . . . . . . . . . . . . . . . . . . . . @ ",
"+ + . . . . . . . . . . . . . . . . . . . . . . . . . . . . . . . . . . . . . . . . . . . . . . . . . . . . . . . . . . . . . . . . . . . . . . . . . . . . . . . . . . . . . . . . . . . . . . . . . . . . . . . . . . . . . . . . . . . . . . . . . . . . . . . . . . . . . . . . . . . . . . . . . . . . . . . . . . . . . @ @ ",
"+ + + . . . . . . . . . . . . . . . . . . . . . . . . . . . . . . . . . . . . . . . . . . . . . . . . . . . . . . . . . . . . . . . . . . . . . . . . . . . . . . . . . . . . . . . . . . . . . . . . . . . . . . . . . . . . . . . . . . . . . . . . . . . . . . . . . . . . . . . . . . . . . . . . . . . . . . . . . . . @ @ @ ",
"+ + + + # # # # # # # # # # # # # # # # # # # # # # # # # # # # # # # # # # # # # # # # # # # # # # # # # # # # # # # # # # # # # # # # # # # # # # # # # # # # # # # # # # # # # # # # # # # # # # # # # # # # # # # # # # # # # # # # # # # # # # # # # # # # # # # # # # # # # # # # # # # # # # # # # # # # # # # # # @ @ @ @ ",
"+ + + + # # # # # # # # # # # # # # # # # # # # # # # # # # # # # # # # # # # # # # # # # # # # # # # # # # # # # # # # # # # # # # # # # # # # # # # # # # # # # # # # # # # # # # # # # # # # # # # # # # # # # # # # # # # # # # # # # # # # # # # # # # # # # # # # # # # # # # # # # # # # # # # # # # # # # # # # # @ @ @ @ ",
"+ + + + # # # # $ % & * = - ; > # # # # # # # # # # # # # # # # # # # , ' ' ) # # # # # # # # # # # # # # # # # # # # # # # # # # # # # # # # # # # # # # # # # # # # ! ' ' ' ' ' ' ' ' ' ~ { ] # # # # # # # # # # # # # # # # # # # # # # # # # # # # # # # # # # # # # # # # # # # # # # # # # # # # # # # # # # # # # @ @ @ @ ",
"+ + + + # # ^ / @ @ @ @ @ @ @ @ - ( # # # # # # # # # # # # # # # # # _ @ @ : < # # # # # # # # # # # # # # # # # # # # # # # # # # # # # > [ [ } # # # # # # # # # # ] @ @ @ @ @ @ @ @ @ @ @ | _ # # # # # # # # # # # # # # # # # # # # # # # # # # # # # # # # # # # # # # # # # # # # # # # # # # # # # # # # # # # # @ @ @ @ ",
"+ + + + # 1 2 @ @ @ @ @ @ @ @ @ @ 3 4 # # # # # # # # # # # # # # # # _ @ @ 5 ) # # # # # # # # # # # # # # # # # # # # # # # # # # # # # 6 @ @ 7 8 # # # # # # # # # ] @ @ @ @ @ @ @ @ @ @ @ @ @ 9 # # # # # # # # # # # # # # # # # # # # # # # # # # # # # # # # # # # # # # # # # # # # # # # # # # # # # # # # # # # @ @ @ @ ",
"+ + + + # 0 @ @ @ a b c d / e @ @ @ f # # # # # # # # # # # # # # # # _ @ @ 5 ) # # # # # # # # # # # # # # # # # # # # # # # # # # # # # 6 @ @ * g # # # # # # # # # ] @ @ @ a h h h h i j @ @ @ k l # # # # # # # # # # # # # # # # # # # # # # # # # # # # # # # # # # # # # # # # # # # # # # # # # # # # # # # # # # @ @ @ @ ",
"+ + + + # m @ @ : n o p q r s 5 @ @ t u # # # # # v w x 1 # # # # # # _ @ @ 5 ) # # # # # v w x 1 # # # # # # # # # # 4 y z A # # # # # # 6 @ @ * g # # # # # # # # # ] @ @ @ * B C C C C D E @ @ F G # # # # # 1 H u I # # # # # # # # # # # 1 H u I # # # # # # # # # # # # # J > K # # # # v l L # # # # # # # # # # # @ @ @ @ ",
"+ + + + # M @ @ N O P # # # # Q E E R S # # # T U 5 @ @ 5 V w # # # # _ @ @ 5 ) # # # T U 5 @ @ 5 V w # # # # # # [ U 5 @ @ W X Y # # Z ` F @ @ e i  .# # # # # # # # ] @ @ @ * g # # # # # b @ @ W ..# # # x +.j @ @ @ @.; A # # # # # # x +.j @ @ @ @.; A # # # # 9 F F k H / #.@ #.$.r ( %.F @ @ N &.# # # # # # # # # @ @ @ @ ",
"+ + + + # V @ @ #.%.# # # # # # *.9 9 D # # =.F @ @ @ @ @ @ F  .# # # _ @ @ 5 ) # # =.F @ @ @ @ @ @ F  .# # # # s 5 @ @ @ @ @ @ #.o # ' @ @ @ @ @ @ Q z # # # # # # # ] @ @ @ * g # # # # # $.@ @ j -.# # Y j @ @ @ @ @ @ @ ;.>.# # # # Y j @ @ @ @ @ @ @ ;.>.# # # _ @ @ 5 j @ @ @ @ @ k ,.@ @ @ @ @ @ B # # # # # # # # @ @ @ @ ",
"+ + + + # '.@ @ @ @ ).!.~.{.].# # # # # # ^./.@ @ j = h : @ @ : (.# # _ @ @ 5 ) # ^./.@ @ j = h : @ @ : (.# # r e @ @ | t R 5 @ @ 5 _.:.V 5 @ @ N ,.Q $ # # # # # # # ] @ @ @ * g # # # <.D | @ @ [.9 # J N @ @ @ 6 i + @ @ @ R }.# # J N @ @ @ 6 i + @ @ @ R }.# # _ @ @ @ @ /.).W @ @ @ @ 5 ).e @ @ @ k |.# # # # # # # @ @ @ @ ",
"+ + + + # 1.. @ @ @ @ @ @ @ | 2.9 A # # # ) @ @ F 3.4.5.&.| @ @ & v # _ @ @ 5 ) # ) @ @ F 3.4.5.&.| @ @ & v # 6.@ @ W !.7.S 8.W @ @ U A l N @ @ * '.:.9.# # # # # # # ] @ @ @ W F 0.0.0.#.@ @ @ a.% b.# 7.@ @ @ U 6.c.d.h @ @ @ ) # # 7.@ @ @ U 6.c.d.h @ @ @ ) # # _ @ @ @ h ' 9 n @ @ @ : f ; o k @ @ e Z # # # # # # # @ @ @ @ ",
"+ + + + # # e.V e @ @ @ @ @ @ @ @ + [ # # 2 @ @ i ..e.# # f.@ @ @._.# _ @ @ 5 ) # 2 @ @ i ..e.# # f.@ @ @._.# . @ @ t ~ g.# # b : : ,.h.# 6 @ @ * g # # # # # # # # # ] @ @ @ @ @ @ @ @ @ @ @ i ' &.1 # i @ @ N ' i.# # j.5 @ @ h k.# i @ @ N ' i.# # j.5 @ @ h k.# _ @ @ @ n l.# # 5 @ @ * O m.# -.@ @ : n.# # # # # # # @ @ @ @ ",
"+ + + + # # # o.p.% U i a W @ @ @ @ /.>.# F @ @ + h - - - a.@ @ 5 q.# _ @ @ 5 ) # F @ @ + h - - - a.@ @ 5 q.# 5 @ @ $.S # # # # r.O O s.# 6 @ @ * g # # # # # # # # # ] @ @ @ @ @ @ @ @ @ @ @ @ $.# # # 5 @ @ [.'.# # # # = @ @ 6 C # 5 @ @ [.'.# # # # = @ @ 6 C # _ @ @ 5 6.t.# # F @ @ $.g # # 7.@ @ : O # # # # # # # @ @ @ @ ",
"+ + + + # # # # # # j.{.s u.b : @ @ @ v.w.@ @ @ @ @ @ @ @ @ @ @ @ ) # _ @ @ 5 ) 1.@ @ @ @ @ @ @ @ @ @ @ @ ) 4 @ @ @ f.h.# # # # # # # # # 6 @ @ * g # # # # # # # # # ] @ @ @ 2 x.x.x.x.+.a @ @ @ y.# 4 @ @ @ z.< # # # # A.@ @ a 0 4 @ @ @ z.< # # # # A.@ @ a 0 # _ @ @ 5 ) # # # F @ @ $.Y # # 7.@ @ : O # # # # # # # @ @ @ @ ",
"+ + + + B.5.5.5.C.# # # # # <.D.@ @ @ U C.@ @ @ @.. . . . . . . . ' E._ @ @ 5 ) 1 @ @ @ @.. . . . . . . . ' o.@ @ @ / (.# # # # # # # # # 6 @ @ * g # # # # # # # # # ] @ @ @ * s.F.F.F.A D @ @ @ - G.B.#.@ @ ` H.# # # # U @ @ @.o B.#.@ @ ` H.# # # # U @ @ @.o # _ @ @ 5 ) # # # F @ @ $.Y # # 7.@ @ : O # # # # # # # @ @ @ @ ",
"+ + + + # : @ @ / I.# # # # # > @ @ @ f.{./.@ @ ` { *.*.*.*.*.*.*.*.J._ @ @ 5 ) # /.@ @ ` { *.*.*.*.*.*.*.*.J.+ @ @ ,.$ # # # S -.-.D # # 6 @ @ * g # # # # # # # # # ] @ @ @ * g # # # # p @ @ @ $.(.# @.@ @ t K.# # # 1 @.@ @ t q.# @.@ @ t K.# # # 1 @.@ @ t q.# _ @ @ 5 ) # # # F @ @ $.Y # # 7.@ @ : O # # # # # # # @ @ @ @ ",
"+ + + + # M @ @ W ~ # # # # # v.@ @ @ !.L.z.@ @ ;.K.# # # '.b b M.# # _ @ @ 5 ) # z.@ @ ;.K.# # # '.b b M.# # f.@ @ F N.# # v N @ @ Q u # 6 @ @ * g # # # # # # # # # ] @ @ @ * g # # # # L.@ @ @ X h.# O.@ @ W '.# # # G @ @ @ z.S # O.@ @ W '.# # # G @ @ @ z.S # _ @ @ 5 ) # # # F @ @ $.Y # # 7.@ @ : O # # # # # # # @ @ @ @ ",
"+ + + + # P.@ @ @ #.& n.Z O * @ @ @ a ' Q.s @ @ @ b ^ I R.| @ @ d S.# _ @ @ 5 ) # s @ @ @ b ^ I R.| @ @ d S.#  .@ @ @ k g p.z.@ @ #.%.=.# a.@ @ 6 s.].# # # # # # # # ] @ @ @ * g # # # # (.@ @ @ = p.# T.#.@ @ j { T.n.F @ @ : % [ # T.#.@ @ j { T.n.F @ @ : % [ # _ @ @ 5 ) # # # F @ @ $.Y # # 7.@ @ : O # # # # # # # @ @ @ @ ",
"+ + + + # # U.@ @ @ @ @ @ @ @ @ @ : c o # # / @ @ @ @ @ @ @ @ 6 ' h.# _ @ @ 5 ) # # / @ @ @ @ @ @ @ @ 6 ' h.# # / @ @ @ @ @ @ @ @ * 6.V.# & @ @ @ @ 8.1 # # # # # # # ] @ @ @ * g # # # # r @ @ @ 3 =.# # v.@ @ @ @ @ @ @ @ W A.O <.# # v.@ @ @ @ @ @ @ @ W A.O <.# _ @ @ 5 ) # # # F @ @ $.Y # # 7.@ @ : O # # # # # # # @ @ @ @ ",
"+ + + + # # # c : @ @ @ @ @ @ #.W.f O ^ # # 1.M #.@ @ @ @ W * % 0 B.# _ @ @ 5 ) # # 1.M #.@ @ @ @ W * % 0 B.# # ].$.#.@ @ @ @ W 2.' X.# # Y.| @ @ @ / $ # # # # # # # ] @ @ @ * g # # # # # t @ @ @ Z.# # # 7 5 @ @ @ @ @ E O.-.`.# # # # 7 5 @ @ @ @ @ E O.-.`.# # _ @ @ 5 ) # # # F @ @ $.Y # # 7.@ @ : O # # # # # # # @ @ @ @ ",
"+ + + + # # # # h.%.` h ,.= - v.M. +m.# # # # o.~./ * h U x.-.g 1 # # # , ' ' ) # # # o.~./ * h U x.-.g 1 # # # # 1 G & h * & .+-.S.E.# # # Y $.* [.c $ # # # # # # # # ! ' ' ' g # # # # # # D.' ' 6.++# # # @+U.= * X A.' 9 L # # # # # # @+U.= * X A.' 9 L # # # # , ' ' ) # # # # ~ ' ' Y # # # 5.' ' O # # # # # # # @ @ @ @ ",
"+ + + + # # # # # B.C._.l.:.5.#+! # # # # # # # # J $+g l.i.A # # # # # # # # # # # # # # J $+g l.i.A # # # # # # # # %+&+l.g *+=+# # # # # # -+_.X.< ^.# # # # # # # # # # # # # # # # # # # # # # # # # # # # 4 T =.X.b.;+B.# # # # # # # # 4 T =.X.b.;+B.# # # # # # # # # # # # # # # # # # # # # # # # # # # # # # # @ @ @ @ ",
"+ + + + # # # # # # # # # # # # # # # # # # # # # # # # # # # # # # # # # # # # # # # # # # # # # # # # # # # # # # # # # # # # # # # # # # # # # # # # # # # # # # # # # # # # # # # # # # # # # # # # # # # # # # # # # # # # # # # # # # # # # # # # # # # # # # # # # # # # # # # # # # # # # # # # # # # # # # # # # @ @ @ @ ",
"+ + + + # # # # # # # # # # # # # # # # # # # # # # # # # # # # # # # # # # # # # # # # # # # # # # # # # # # # # # # # # # # # # # # # # # # # # # # # # # # # # # # # # # # # # # # # # # # # # # # # # # # # # # # # # # # # # # # # # # # # # # # # # # # # # # # # # # # # # # # # # # # # # # # # # # # # # # # # # @ @ @ @ ",
"+ + + + # # # # # # # # # # # # # # # # # # # # # # # # # # # # # # # # # # # # # # # # # # # # # # # # # # # # # # # # # # # # # # # # # # # # # # # # # # # # # # # # # # # # # # # # # # # # # # # # # # # # # # # # # # # # # # # # # # # # # # # # # # # # # # # # # # # # # # # # # # # # # # # # # # # # # # # # # @ @ @ @ ",
"+ + + + # # # # # # # # # # # # # # # # # # # # # # # # # # # # # # # # # # # # # # # # # # # # # # # # # # # # # # # # # # # # # # # # # # # # # # # # # # # # # # # # # # # # # # # # # # # # # # # # # # # # # # # # # # # # # # # # # # # # # # # # # # # # # # # # # # # # # # # # # # # # # # # # # # # # # # # # # @ @ @ @ ",
"+ + + + # # # # # # # # # # # # # # # # # # # # # # # # # # # # # # # # # # # # # # # # # # # # # # # # # # # # # # # # # # # # # # # # # # # # # # # # # # # # # # # # # # # # # # # # # # # # # # # # # # # # # # # # # # # # # # # # # # # # # # # # # # # # # # # # # # # # # # # # # # # # # # # # # # # # # # # # # @ @ @ @ ",
"+ + + + @ @ @ @ @ @ @ @ @ @ @ @ @ @ @ @ @ @ @ @ @ @ @ @ @ @ @ @ @ @ @ @ @ @ @ @ @ @ @ @ @ @ @ @ @ @ @ @ @ @ @ @ @ @ @ @ @ @ @ @ @ @ @ @ @ @ @ @ @ @ @ @ @ @ @ @ @ @ @ @ @ @ @ @ @ @ @ @ @ @ @ @ @ @ @ @ @ @ @ @ @ @ @ @ @ @ @ @ @ @ @ @ @ @ @ @ @ @ @ @ @ @ @ @ @ @ @ @ @ @ @ @ @ @ @ @ @ @ @ @ @ @ @ @ @ @ @ @ @ @ @ @ @ @ @ @ @ ",
"+ + + @ @ @ @ @ @ @ @ @ @ @ @ @ @ @ @ @ @ @ @ @ @ @ @ @ @ @ @ @ @ @ @ @ @ @ @ @ @ @ @ @ @ @ @ @ @ @ @ @ @ @ @ @ @ @ @ @ @ @ @ @ @ @ @ @ @ @ @ @ @ @ @ @ @ @ @ @ @ @ @ @ @ @ @ @ @ @ @ @ @ @ @ @ @ @ @ @ @ @ @ @ @ @ @ @ @ @ @ @ @ @ @ @ @ @ @ @ @ @ @ @ @ @ @ @ @ @ @ @ @ @ @ @ @ @ @ @ @ @ @ @ @ @ @ @ @ @ @ @ @ @ @ @ @ @ @ @ @ ",
"+ + @ @ @ @ @ @ @ @ @ @ @ @ @ @ @ @ @ @ @ @ @ @ @ @ @ @ @ @ @ @ @ @ @ @ @ @ @ @ @ @ @ @ @ @ @ @ @ @ @ @ @ @ @ @ @ @ @ @ @ @ @ @ @ @ @ @ @ @ @ @ @ @ @ @ @ @ @ @ @ @ @ @ @ @ @ @ @ @ @ @ @ @ @ @ @ @ @ @ @ @ @ @ @ @ @ @ @ @ @ @ @ @ @ @ @ @ @ @ @ @ @ @ @ @ @ @ @ @ @ @ @ @ @ @ @ @ @ @ @ @ @ @ @ @ @ @ @ @ @ @ @ @ @ @ @ @ @ @ @ ",
"+ @ @ @ @ @ @ @ @ @ @ @ @ @ @ @ @ @ @ @ @ @ @ @ @ @ @ @ @ @ @ @ @ @ @ @ @ @ @ @ @ @ @ @ @ @ @ @ @ @ @ @ @ @ @ @ @ @ @ @ @ @ @ @ @ @ @ @ @ @ @ @ @ @ @ @ @ @ @ @ @ @ @ @ @ @ @ @ @ @ @ @ @ @ @ @ @ @ @ @ @ @ @ @ @ @ @ @ @ @ @ @ @ @ @ @ @ @ @ @ @ @ @ @ @ @ @ @ @ @ @ @ @ @ @ @ @ @ @ @ @ @ @ @ @ @ @ @ @ @ @ @ @ @ @ @ @ @ @ @ @ "};
