/* XPM */
static char * normal_zoom_xpm[] = {
"38 34 112 2",
"  	c None",
". 	c #E6E6E6",
"+ 	c #F3F3F3",
"@ 	c #FFFFFF",
"# 	c #000000",
"$ 	c #161616",
"% 	c #323232",
"& 	c #898989",
"* 	c #303030",
"= 	c #808080",
"- 	c #4C4C4C",
"; 	c #7C7C7C",
"> 	c #BCBCBC",
", 	c #BDBDBD",
"' 	c #424242",
") 	c #A5A5A5",
"! 	c #E0E0E0",
"~ 	c #E1E1E1",
"{ 	c #D0D0D0",
"] 	c #454545",
"^ 	c #686868",
"/ 	c #DCDCDC",
"( 	c #DADADA",
"_ 	c #6A6A6A",
": 	c #494949",
"< 	c #B2B2B2",
"[ 	c #4F4F4F",
"} 	c #414141",
"| 	c #EBEBEB",
"1 	c #C2C2C2",
"2 	c #121212",
"3 	c #ACACAC",
"4 	c #D1D1D1",
"5 	c #E9E9E9",
"6 	c #1C1C1C",
"7 	c #2C2C2C",
"8 	c #515151",
"9 	c #888888",
"0 	c #B4B4B4",
"a 	c #C6C6C6",
"b 	c #F9F9F9",
"c 	c #969696",
"d 	c #FCFCFC",
"e 	c #565656",
"f 	c #7B7B7B",
"g 	c #F5F5F5",
"h 	c #FEFEFE",
"i 	c #7D7D7D",
"j 	c #777777",
"k 	c #C0C0C0",
"l 	c #C9C9C9",
"m 	c #FAFAFA",
"n 	c #D6D6D6",
"o 	c #CDCDCD",
"p 	c #2A2A2A",
"q 	c #B3B3B3",
"r 	c #787878",
"s 	c #D8D8D8",
"t 	c #626262",
"u 	c #F4F4F4",
"v 	c #A2A2A2",
"w 	c #BFBFBF",
"x 	c #F2F2F2",
"y 	c #404040",
"z 	c #3F3F3F",
"A 	c #B5B5B5",
"B 	c #EAEAEA",
"C 	c #E2E2E2",
"D 	c #979797",
"E 	c #585858",
"F 	c #8D8D8D",
"G 	c #A4A4A4",
"H 	c #DFDFDF",
"I 	c #353535",
"J 	c #E5E5E5",
"K 	c #FDFDFD",
"L 	c #D7D7D7",
"M 	c #696969",
"N 	c #D2D2D2",
"O 	c #FBFBFB",
"P 	c #5C5C5C",
"Q 	c #535353",
"R 	c #AEAEAE",
"S 	c #060606",
"T 	c #A7A7A7",
"U 	c #9F9F9F",
"V 	c #F7F7F7",
"W 	c #3C3C3C",
"X 	c #B6B6B6",
"Y 	c #9B9B9B",
"Z 	c #C3C3C3",
"` 	c #838383",
" .	c #EFEFEF",
"..	c #222222",
"+.	c #242424",
"@.	c #B0B0B0",
"#.	c #2E2E2E",
"$.	c #BEBEBE",
"%.	c #5F5F5F",
"&.	c #8A8A8A",
"*.	c #666666",
"=.	c #BABABA",
"-.	c #E3E3E3",
";.	c #191919",
">.	c #D5D5D5",
",.	c #E4E4E4",
"'.	c #919191",
").	c #737373",
"!.	c #F6F6F6",
"~.	c #262626",
"{.	c #EEEEEE",
"].	c #A1A1A1",
". . . . . . . . . . . . . . . . . . . . . . . . . . . . . . . . . . . . . . ",
"+ . . . . . . . . . . . . . . . . . . . . . . . . . . . . . . . . . . . . @ ",
"+ + . . . . . . . . . . . . . . . . . . . . . . . . . . . . . . . . . . @ @ ",
"+ + + . . . . . . . . . . . . . . . . . . . . . . . . . . . . . . . . @ @ @ ",
"+ + + + # # # # # # # # # # # # # # # # # # # # # # # # # # # # # # @ @ @ @ ",
"+ + + + # # # # # # # # # # # # # # # # # # # # # # # # # # # # # # @ @ @ @ ",
"+ + + + # # # # # # # $ $ # # # # % & & & & * # # # # # = & & & - # @ @ @ @ ",
"+ + + + # # # # # # ; > , ' # # # # ) ! ~ ~ { ] # # # ^ > / ~ ( > _ @ @ @ @ ",
"+ + + + # # # # # : < ( @ @ [ # # # } | @ @ @ 1 # # 2 3 4 @ @ @ 5 6 @ @ @ @ ",
"+ + + + # # 7 8 9 0 a b @ @ [ # # # # c d @ @ d e # f , g @ @ h i # @ @ @ @ ",
"+ + + + # j > k l ! m @ @ @ [ # # # # 2 n @ @ @ o p q ( @ @ @ a # # @ @ @ @ ",
"+ + + + # r s @ @ @ @ @ @ @ [ # # # # # t u @ @ h v w m @ @ x y # # @ @ @ @ ",
"+ + + + # z A @ @ @ @ @ @ @ [ # # # # # # 0 @ @ @ B C @ @ @ D # # # @ @ @ @ ",
"+ + + + # # E F F G H @ @ @ [ # # # # # # I J @ @ @ K @ @ L # # # # @ @ @ @ ",
"+ + + + # # # # # M N @ @ @ [ # # # # # # # 9 O @ @ @ @ b P # # # # @ @ @ @ ",
"+ + + + # # # # # M N @ @ @ [ # # # # # # # Q s @ @ @ @ R # # # # # @ @ @ @ ",
"+ + + + # # # # # M N @ @ @ [ # # # # # # S T l @ @ @ @ U # # # # # @ @ @ @ ",
"+ + + + # # # # # M N @ @ @ [ # # # # # # ; > x @ @ @ @ V ' # # # # @ @ @ @ ",
"+ + + + # # # # # M N @ @ @ [ # # # # # W X ( @ @ @ @ @ @ { # # # # @ @ @ @ ",
"+ + + + # # # # # M N @ @ @ [ # # # # # Y Z O @ @ ! 5 @ @ h ` # # # @ @ @ @ ",
"+ + + + # # # # # M N @ @ @ [ # # # # ^ > | @ @ h r U K @ @  ...# # @ @ @ @ ",
"+ + + + # # # # # M N @ @ @ [ # # # +.@.4 @ @ @ { # #.! @ @ @ , # # @ @ @ @ ",
"+ + + + # # # # # M N @ @ @ [ # # # F $.V @ @ O %.# # &.O @ @ d *.# @ @ @ @ ",
"+ + + + # # # # # M N @ @ @ [ # # Q =.-.@ @ @ k # # # ;.>.@ @ @ ,.# @ @ @ @ ",
"+ + + + # # # # # # '.@ @ @ [ # # # ).K @ @ !.' # # # # ~.{.@ @ @ ].@ @ @ @ ",
"+ + + + # # # # # # # # # # # # # # # # # # # # # # # # # # # # # # @ @ @ @ ",
"+ + + + # # # # # # # # # # # # # # # # # # # # # # # # # # # # # # @ @ @ @ ",
"+ + + + # # # # # # # # # # # # # # # # # # # # # # # # # # # # # # @ @ @ @ ",
"+ + + + # # # # # # # # # # # # # # # # # # # # # # # # # # # # # # @ @ @ @ ",
"+ + + + # # # # # # # # # # # # # # # # # # # # # # # # # # # # # # @ @ @ @ ",
"+ + + + @ @ @ @ @ @ @ @ @ @ @ @ @ @ @ @ @ @ @ @ @ @ @ @ @ @ @ @ @ @ @ @ @ @ ",
"+ + + @ @ @ @ @ @ @ @ @ @ @ @ @ @ @ @ @ @ @ @ @ @ @ @ @ @ @ @ @ @ @ @ @ @ @ ",
"+ + @ @ @ @ @ @ @ @ @ @ @ @ @ @ @ @ @ @ @ @ @ @ @ @ @ @ @ @ @ @ @ @ @ @ @ @ ",
"+ @ @ @ @ @ @ @ @ @ @ @ @ @ @ @ @ @ @ @ @ @ @ @ @ @ @ @ @ @ @ @ @ @ @ @ @ @ "};
