/* XPM */
static char * triple_zoom_xpm[] = {
"38 34 138 2",
"  	c None",
". 	c #E6E6E6",
"+ 	c #F3F3F3",
"@ 	c #FFFFFF",
"# 	c #000000",
"$ 	c #3D3D3D",
"% 	c #6B6B6B",
"& 	c #757575",
"* 	c #6A6A6A",
"= 	c #3B3B3B",
"- 	c #323232",
"; 	c #898989",
"> 	c #303030",
", 	c #808080",
"' 	c #4C4C4C",
") 	c #434343",
"! 	c #A1A1A1",
"~ 	c #BBBBBB",
"{ 	c #C3C3C3",
"] 	c #D2D2D2",
"^ 	c #D7D7D7",
"/ 	c #D1D1D1",
"( 	c #A8A8A8",
"_ 	c #A5A5A5",
": 	c #E0E0E0",
"< 	c #E1E1E1",
"[ 	c #D0D0D0",
"} 	c #454545",
"| 	c #686868",
"1 	c #BCBCBC",
"2 	c #DCDCDC",
"3 	c #DADADA",
"4 	c #B5B5B5",
"5 	c #C5C5C5",
"6 	c #EEEEEE",
"7 	c #E8E8E8",
"8 	c #5D5D5D",
"9 	c #414141",
"0 	c #EBEBEB",
"a 	c #C2C2C2",
"b 	c #121212",
"c 	c #ACACAC",
"d 	c #E9E9E9",
"e 	c #1C1C1C",
"f 	c #959595",
"g 	c #FBFBFB",
"h 	c #F2F2F2",
"i 	c #404040",
"j 	c #969696",
"k 	c #FCFCFC",
"l 	c #565656",
"m 	c #7B7B7B",
"n 	c #BDBDBD",
"o 	c #F5F5F5",
"p 	c #FEFEFE",
"q 	c #7D7D7D",
"r 	c #B4B4B4",
"s 	c #E7E7E7",
"t 	c #A7A7A7",
"u 	c #B9B9B9",
"v 	c #D6D6D6",
"w 	c #CDCDCD",
"x 	c #2A2A2A",
"y 	c #B3B3B3",
"z 	c #C6C6C6",
"A 	c #2E2E2E",
"B 	c #FAFAFA",
"C 	c #AAAAAA",
"D 	c #929292",
"E 	c #626262",
"F 	c #F4F4F4",
"G 	c #A2A2A2",
"H 	c #BFBFBF",
"I 	c #222222",
"J 	c #818181",
"K 	c #656565",
"L 	c #E5E5E5",
"M 	c #EAEAEA",
"N 	c #E2E2E2",
"O 	c #979797",
"P 	c #9F9F9F",
"Q 	c #161616",
"R 	c #7E7E7E",
"S 	c #CECECE",
"T 	c #353535",
"U 	c #FDFDFD",
"V 	c #A0A0A0",
"W 	c #BABABA",
"X 	c #DBDBDB",
"Y 	c #F9F9F9",
"Z 	c #6E6E6E",
"` 	c #888888",
" .	c #5C5C5C",
"..	c #F7F7F7",
"+.	c #535353",
"@.	c #D8D8D8",
"#.	c #AEAEAE",
"$.	c #707070",
"%.	c #EDEDED",
"&.	c #060606",
"*.	c #C9C9C9",
"=.	c #9A9A9A",
"-.	c #B6B6B6",
";.	c #7C7C7C",
">.	c #424242",
",.	c #333333",
"'.	c #E3E3E3",
").	c #606060",
"!.	c #3C3C3C",
"~.	c #636363",
"{.	c #282828",
"].	c #C1C1C1",
"^.	c #989898",
"/.	c #9B9B9B",
"(.	c #838383",
"_.	c #CFCFCF",
":.	c #787878",
"<.	c #EFEFEF",
"[.	c #777777",
"}.	c #919191",
"|.	c #242424",
"1.	c #B0B0B0",
"2.	c #F0F0F0",
"3.	c #8D8D8D",
"4.	c #BEBEBE",
"5.	c #5F5F5F",
"6.	c #8A8A8A",
"7.	c #666666",
"8.	c #909090",
"9.	c #C0C0C0",
"0.	c #191919",
"a.	c #D5D5D5",
"b.	c #E4E4E4",
"c.	c #F1F1F1",
"d.	c #737373",
"e.	c #F6F6F6",
"f.	c #262626",
"g.	c #B7B7B7",
". . . . . . . . . . . . . . . . . . . . . . . . . . . . . . . . . . . . . . ",
"+ . . . . . . . . . . . . . . . . . . . . . . . . . . . . . . . . . . . . @ ",
"+ + . . . . . . . . . . . . . . . . . . . . . . . . . . . . . . . . . . @ @ ",
"+ + + . . . . . . . . . . . . . . . . . . . . . . . . . . . . . . . . @ @ @ ",
"+ + + + # # # # # # # # # # # # # # # # # # # # # # # # # # # # # # @ @ @ @ ",
"+ + + + # # # # # # # # # # # # # # # # # # # # # # # # # # # # # # @ @ @ @ ",
"+ + + + # # # # $ % & * = # # # # - ; ; ; ; > # # # # # , ; ; ; ' # @ @ @ @ ",
"+ + + + # # ) ! ~ { ] ^ / ( = # # # _ : < < [ } # # # | 1 2 < 3 1 * @ @ @ @ ",
"+ + + + # ) 4 5 6 @ @ @ @ @ 7 8 # # 9 0 @ @ @ a # # b c / @ @ @ d e @ @ @ @ ",
"+ + + + # f 5 g @ @ @ @ @ @ @ h i # # j k @ @ k l # m n o @ @ p q # @ @ @ @ ",
"+ + + + # r s @ @ g n t s @ @ @ u # # b v @ @ @ w x y 3 @ @ @ z # # @ @ @ @ ",
"+ + + + A 1 B @ @ C # # D h @ @ : # # # E F @ @ p G H B @ @ h i # # @ @ @ @ ",
"+ + + + I J @ @ @ K # # ! L @ @ . # # # # r @ @ @ M N @ @ @ O # # # @ @ @ @ ",
"+ + + + # - P P P I Q R 1 6 @ @ S # # # # T L @ @ @ U @ @ ^ # # # # @ @ @ @ ",
"+ + + + # # # # # V W n X @ @ Y Z # # # # # ` g @ @ @ @ Y  .# # # # @ @ @ @ ",
"+ + + + # # # # # C 6 p @ @ ..J # # # # # # +.@.@ @ @ @ #.# # # # # @ @ @ @ ",
"+ + + + # # # # # $.%.@ @ @ p @.e # # # # &.t *.@ @ @ @ P # # # # # @ @ @ @ ",
"+ + + + # # # # # # =.-.s @ @ @ S # # # # ;.1 h @ @ @ @ ..>.# # # # @ @ @ @ ",
"+ + + + # # # # # # # # ,.'.@ @ p ).# # !.-.3 @ @ @ @ @ @ [ # # # # @ @ @ @ ",
"+ + + + ~.~ ~ W x # # # {.].@ @ @ ^.# # /.{ g @ @ : d @ @ p (.# # # @ @ @ @ ",
"+ + + + ) _.p p U $ # # m H @ @ @ V # | 1 0 @ @ p :.P U @ @ <.I # # @ @ @ @ ",
"+ + + + # 4 @ @ @ ].[.}.W 3 @ @ @ J |.1./ @ @ @ [ # A : @ @ @ n # # @ @ @ @ ",
"+ + + + #  .h @ @ U '.@.L p @ @ 2.e 3.4...@ @ g 5.# # 6.g @ @ k 7.# @ @ @ @ ",
"+ + + + # # O U @ @ @ @ @ @ @ p 8.+.W '.@ @ @ 9.# # # 0.a.@ @ @ b.# @ @ @ @ ",
"+ + + + # # # 6.h @ @ @ @ @ c.8.# # d.U @ @ e.>.# # # # f.6 @ @ @ ! @ @ @ @ ",
"+ + + + # # # # I 8.g.9.-.3.I # # # # # # # # # # # # # # # # # # # @ @ @ @ ",
"+ + + + # # # # # # # # # # # # # # # # # # # # # # # # # # # # # # @ @ @ @ ",
"+ + + + # # # # # # # # # # # # # # # # # # # # # # # # # # # # # # @ @ @ @ ",
"+ + + + # # # # # # # # # # # # # # # # # # # # # # # # # # # # # # @ @ @ @ ",
"+ + + + # # # # # # # # # # # # # # # # # # # # # # # # # # # # # # @ @ @ @ ",
"+ + + + @ @ @ @ @ @ @ @ @ @ @ @ @ @ @ @ @ @ @ @ @ @ @ @ @ @ @ @ @ @ @ @ @ @ ",
"+ + + @ @ @ @ @ @ @ @ @ @ @ @ @ @ @ @ @ @ @ @ @ @ @ @ @ @ @ @ @ @ @ @ @ @ @ ",
"+ + @ @ @ @ @ @ @ @ @ @ @ @ @ @ @ @ @ @ @ @ @ @ @ @ @ @ @ @ @ @ @ @ @ @ @ @ ",
"+ @ @ @ @ @ @ @ @ @ @ @ @ @ @ @ @ @ @ @ @ @ @ @ @ @ @ @ @ @ @ @ @ @ @ @ @ @ "};
